%TF.GenerationSoftware,KiCad,Pcbnew,(5.1.7)-1*%
%TF.CreationDate,2020-11-03T10:53:37+01:00*%
%TF.ProjectId,PCB,5043422e-6b69-4636-9164-5f7063625858,rev?*%
%TF.SameCoordinates,Original*%
%TF.FileFunction,Paste,Top*%
%TF.FilePolarity,Positive*%
%FSLAX46Y46*%
G04 Gerber Fmt 4.6, Leading zero omitted, Abs format (unit mm)*
G04 Created by KiCad (PCBNEW (5.1.7)-1) date 2020-11-03 10:53:37*
%MOMM*%
%LPD*%
G01*
G04 APERTURE LIST*
%ADD10R,2.200000X1.200000*%
%ADD11R,3.050000X2.750000*%
%ADD12R,0.800000X0.900000*%
%ADD13R,2.665000X4.190000*%
%ADD14R,1.780000X4.190000*%
%ADD15R,2.250000X1.600000*%
%ADD16R,2.750000X3.050000*%
%ADD17R,1.200000X2.200000*%
%ADD18R,1.950000X1.050000*%
G04 APERTURE END LIST*
D10*
%TO.C,U23*%
X228600000Y-92100000D03*
X228600000Y-96660000D03*
D11*
X236575000Y-95905000D03*
X233225000Y-92855000D03*
X236575000Y-92855000D03*
X233225000Y-95905000D03*
%TD*%
%TO.C,R38*%
G36*
G01*
X94560800Y-86245000D02*
X94560800Y-84995000D01*
G75*
G02*
X94810800Y-84745000I250000J0D01*
G01*
X95610800Y-84745000D01*
G75*
G02*
X95860800Y-84995000I0J-250000D01*
G01*
X95860800Y-86245000D01*
G75*
G02*
X95610800Y-86495000I-250000J0D01*
G01*
X94810800Y-86495000D01*
G75*
G02*
X94560800Y-86245000I0J250000D01*
G01*
G37*
G36*
G01*
X91460800Y-86245000D02*
X91460800Y-84995000D01*
G75*
G02*
X91710800Y-84745000I250000J0D01*
G01*
X92510800Y-84745000D01*
G75*
G02*
X92760800Y-84995000I0J-250000D01*
G01*
X92760800Y-86245000D01*
G75*
G02*
X92510800Y-86495000I-250000J0D01*
G01*
X91710800Y-86495000D01*
G75*
G02*
X91460800Y-86245000I0J250000D01*
G01*
G37*
%TD*%
%TO.C,R37*%
G36*
G01*
X91530000Y-93885000D02*
X91530000Y-95135000D01*
G75*
G02*
X91280000Y-95385000I-250000J0D01*
G01*
X90480000Y-95385000D01*
G75*
G02*
X90230000Y-95135000I0J250000D01*
G01*
X90230000Y-93885000D01*
G75*
G02*
X90480000Y-93635000I250000J0D01*
G01*
X91280000Y-93635000D01*
G75*
G02*
X91530000Y-93885000I0J-250000D01*
G01*
G37*
G36*
G01*
X94630000Y-93885000D02*
X94630000Y-95135000D01*
G75*
G02*
X94380000Y-95385000I-250000J0D01*
G01*
X93580000Y-95385000D01*
G75*
G02*
X93330000Y-95135000I0J250000D01*
G01*
X93330000Y-93885000D01*
G75*
G02*
X93580000Y-93635000I250000J0D01*
G01*
X94380000Y-93635000D01*
G75*
G02*
X94630000Y-93885000I0J-250000D01*
G01*
G37*
%TD*%
%TO.C,R36*%
G36*
G01*
X102180800Y-86245000D02*
X102180800Y-84995000D01*
G75*
G02*
X102430800Y-84745000I250000J0D01*
G01*
X103230800Y-84745000D01*
G75*
G02*
X103480800Y-84995000I0J-250000D01*
G01*
X103480800Y-86245000D01*
G75*
G02*
X103230800Y-86495000I-250000J0D01*
G01*
X102430800Y-86495000D01*
G75*
G02*
X102180800Y-86245000I0J250000D01*
G01*
G37*
G36*
G01*
X99080800Y-86245000D02*
X99080800Y-84995000D01*
G75*
G02*
X99330800Y-84745000I250000J0D01*
G01*
X100130800Y-84745000D01*
G75*
G02*
X100380800Y-84995000I0J-250000D01*
G01*
X100380800Y-86245000D01*
G75*
G02*
X100130800Y-86495000I-250000J0D01*
G01*
X99330800Y-86495000D01*
G75*
G02*
X99080800Y-86245000I0J250000D01*
G01*
G37*
%TD*%
%TO.C,R32*%
G36*
G01*
X111070800Y-95135000D02*
X111070800Y-93885000D01*
G75*
G02*
X111320800Y-93635000I250000J0D01*
G01*
X112120800Y-93635000D01*
G75*
G02*
X112370800Y-93885000I0J-250000D01*
G01*
X112370800Y-95135000D01*
G75*
G02*
X112120800Y-95385000I-250000J0D01*
G01*
X111320800Y-95385000D01*
G75*
G02*
X111070800Y-95135000I0J250000D01*
G01*
G37*
G36*
G01*
X107970800Y-95135000D02*
X107970800Y-93885000D01*
G75*
G02*
X108220800Y-93635000I250000J0D01*
G01*
X109020800Y-93635000D01*
G75*
G02*
X109270800Y-93885000I0J-250000D01*
G01*
X109270800Y-95135000D01*
G75*
G02*
X109020800Y-95385000I-250000J0D01*
G01*
X108220800Y-95385000D01*
G75*
G02*
X107970800Y-95135000I0J250000D01*
G01*
G37*
%TD*%
%TO.C,R15*%
G36*
G01*
X99110800Y-93885000D02*
X99110800Y-95135000D01*
G75*
G02*
X98860800Y-95385000I-250000J0D01*
G01*
X98060800Y-95385000D01*
G75*
G02*
X97810800Y-95135000I0J250000D01*
G01*
X97810800Y-93885000D01*
G75*
G02*
X98060800Y-93635000I250000J0D01*
G01*
X98860800Y-93635000D01*
G75*
G02*
X99110800Y-93885000I0J-250000D01*
G01*
G37*
G36*
G01*
X102210800Y-93885000D02*
X102210800Y-95135000D01*
G75*
G02*
X101960800Y-95385000I-250000J0D01*
G01*
X101160800Y-95385000D01*
G75*
G02*
X100910800Y-95135000I0J250000D01*
G01*
X100910800Y-93885000D01*
G75*
G02*
X101160800Y-93635000I250000J0D01*
G01*
X101960800Y-93635000D01*
G75*
G02*
X102210800Y-93885000I0J-250000D01*
G01*
G37*
%TD*%
D12*
%TO.C,Q10*%
X92390800Y-88430000D03*
X93340800Y-90430000D03*
X91440800Y-90430000D03*
%TD*%
%TO.C,Q6*%
X100010800Y-88430000D03*
X100960800Y-90430000D03*
X99060800Y-90430000D03*
%TD*%
D13*
%TO.C,ANT*%
X191107500Y-107000000D03*
D14*
X194600000Y-107000000D03*
D13*
X198092500Y-107000000D03*
%TD*%
D15*
%TO.C,U22*%
X140760000Y-92540000D03*
X140760000Y-95080000D03*
X132260000Y-95080000D03*
X132260000Y-92540000D03*
%TD*%
%TO.C,U21*%
X140760000Y-80540000D03*
X140760000Y-83080000D03*
X132260000Y-83080000D03*
X132260000Y-80540000D03*
%TD*%
%TO.C,U20*%
X140760000Y-68540000D03*
X140760000Y-71080000D03*
X132260000Y-71080000D03*
X132260000Y-68540000D03*
%TD*%
%TO.C,R35*%
G36*
G01*
X150270000Y-93165000D02*
X150270000Y-91915000D01*
G75*
G02*
X150520000Y-91665000I250000J0D01*
G01*
X151320000Y-91665000D01*
G75*
G02*
X151570000Y-91915000I0J-250000D01*
G01*
X151570000Y-93165000D01*
G75*
G02*
X151320000Y-93415000I-250000J0D01*
G01*
X150520000Y-93415000D01*
G75*
G02*
X150270000Y-93165000I0J250000D01*
G01*
G37*
G36*
G01*
X147170000Y-93165000D02*
X147170000Y-91915000D01*
G75*
G02*
X147420000Y-91665000I250000J0D01*
G01*
X148220000Y-91665000D01*
G75*
G02*
X148470000Y-91915000I0J-250000D01*
G01*
X148470000Y-93165000D01*
G75*
G02*
X148220000Y-93415000I-250000J0D01*
G01*
X147420000Y-93415000D01*
G75*
G02*
X147170000Y-93165000I0J250000D01*
G01*
G37*
%TD*%
%TO.C,R34*%
G36*
G01*
X150270000Y-81165000D02*
X150270000Y-79915000D01*
G75*
G02*
X150520000Y-79665000I250000J0D01*
G01*
X151320000Y-79665000D01*
G75*
G02*
X151570000Y-79915000I0J-250000D01*
G01*
X151570000Y-81165000D01*
G75*
G02*
X151320000Y-81415000I-250000J0D01*
G01*
X150520000Y-81415000D01*
G75*
G02*
X150270000Y-81165000I0J250000D01*
G01*
G37*
G36*
G01*
X147170000Y-81165000D02*
X147170000Y-79915000D01*
G75*
G02*
X147420000Y-79665000I250000J0D01*
G01*
X148220000Y-79665000D01*
G75*
G02*
X148470000Y-79915000I0J-250000D01*
G01*
X148470000Y-81165000D01*
G75*
G02*
X148220000Y-81415000I-250000J0D01*
G01*
X147420000Y-81415000D01*
G75*
G02*
X147170000Y-81165000I0J250000D01*
G01*
G37*
%TD*%
%TO.C,R33*%
G36*
G01*
X150270000Y-69165000D02*
X150270000Y-67915000D01*
G75*
G02*
X150520000Y-67665000I250000J0D01*
G01*
X151320000Y-67665000D01*
G75*
G02*
X151570000Y-67915000I0J-250000D01*
G01*
X151570000Y-69165000D01*
G75*
G02*
X151320000Y-69415000I-250000J0D01*
G01*
X150520000Y-69415000D01*
G75*
G02*
X150270000Y-69165000I0J250000D01*
G01*
G37*
G36*
G01*
X147170000Y-69165000D02*
X147170000Y-67915000D01*
G75*
G02*
X147420000Y-67665000I250000J0D01*
G01*
X148220000Y-67665000D01*
G75*
G02*
X148470000Y-67915000I0J-250000D01*
G01*
X148470000Y-69165000D01*
G75*
G02*
X148220000Y-69415000I-250000J0D01*
G01*
X147420000Y-69415000D01*
G75*
G02*
X147170000Y-69165000I0J250000D01*
G01*
G37*
%TD*%
%TO.C,R31*%
G36*
G01*
X115620800Y-76105000D02*
X115620800Y-77355000D01*
G75*
G02*
X115370800Y-77605000I-250000J0D01*
G01*
X114570800Y-77605000D01*
G75*
G02*
X114320800Y-77355000I0J250000D01*
G01*
X114320800Y-76105000D01*
G75*
G02*
X114570800Y-75855000I250000J0D01*
G01*
X115370800Y-75855000D01*
G75*
G02*
X115620800Y-76105000I0J-250000D01*
G01*
G37*
G36*
G01*
X118720800Y-76105000D02*
X118720800Y-77355000D01*
G75*
G02*
X118470800Y-77605000I-250000J0D01*
G01*
X117670800Y-77605000D01*
G75*
G02*
X117420800Y-77355000I0J250000D01*
G01*
X117420800Y-76105000D01*
G75*
G02*
X117670800Y-75855000I250000J0D01*
G01*
X118470800Y-75855000D01*
G75*
G02*
X118720800Y-76105000I0J-250000D01*
G01*
G37*
%TD*%
%TO.C,R30*%
G36*
G01*
X115620800Y-71025000D02*
X115620800Y-72275000D01*
G75*
G02*
X115370800Y-72525000I-250000J0D01*
G01*
X114570800Y-72525000D01*
G75*
G02*
X114320800Y-72275000I0J250000D01*
G01*
X114320800Y-71025000D01*
G75*
G02*
X114570800Y-70775000I250000J0D01*
G01*
X115370800Y-70775000D01*
G75*
G02*
X115620800Y-71025000I0J-250000D01*
G01*
G37*
G36*
G01*
X118720800Y-71025000D02*
X118720800Y-72275000D01*
G75*
G02*
X118470800Y-72525000I-250000J0D01*
G01*
X117670800Y-72525000D01*
G75*
G02*
X117420800Y-72275000I0J250000D01*
G01*
X117420800Y-71025000D01*
G75*
G02*
X117670800Y-70775000I250000J0D01*
G01*
X118470800Y-70775000D01*
G75*
G02*
X118720800Y-71025000I0J-250000D01*
G01*
G37*
%TD*%
%TO.C,R29*%
G36*
G01*
X123240800Y-69755000D02*
X123240800Y-71005000D01*
G75*
G02*
X122990800Y-71255000I-250000J0D01*
G01*
X122190800Y-71255000D01*
G75*
G02*
X121940800Y-71005000I0J250000D01*
G01*
X121940800Y-69755000D01*
G75*
G02*
X122190800Y-69505000I250000J0D01*
G01*
X122990800Y-69505000D01*
G75*
G02*
X123240800Y-69755000I0J-250000D01*
G01*
G37*
G36*
G01*
X126340800Y-69755000D02*
X126340800Y-71005000D01*
G75*
G02*
X126090800Y-71255000I-250000J0D01*
G01*
X125290800Y-71255000D01*
G75*
G02*
X125040800Y-71005000I0J250000D01*
G01*
X125040800Y-69755000D01*
G75*
G02*
X125290800Y-69505000I250000J0D01*
G01*
X126090800Y-69505000D01*
G75*
G02*
X126340800Y-69755000I0J-250000D01*
G01*
G37*
%TD*%
%TO.C,R28*%
G36*
G01*
X171725000Y-35900000D02*
X172975000Y-35900000D01*
G75*
G02*
X173225000Y-36150000I0J-250000D01*
G01*
X173225000Y-36950000D01*
G75*
G02*
X172975000Y-37200000I-250000J0D01*
G01*
X171725000Y-37200000D01*
G75*
G02*
X171475000Y-36950000I0J250000D01*
G01*
X171475000Y-36150000D01*
G75*
G02*
X171725000Y-35900000I250000J0D01*
G01*
G37*
G36*
G01*
X171725000Y-32800000D02*
X172975000Y-32800000D01*
G75*
G02*
X173225000Y-33050000I0J-250000D01*
G01*
X173225000Y-33850000D01*
G75*
G02*
X172975000Y-34100000I-250000J0D01*
G01*
X171725000Y-34100000D01*
G75*
G02*
X171475000Y-33850000I0J250000D01*
G01*
X171475000Y-33050000D01*
G75*
G02*
X171725000Y-32800000I250000J0D01*
G01*
G37*
%TD*%
%TO.C,R27*%
G36*
G01*
X150725000Y-35900000D02*
X151975000Y-35900000D01*
G75*
G02*
X152225000Y-36150000I0J-250000D01*
G01*
X152225000Y-36950000D01*
G75*
G02*
X151975000Y-37200000I-250000J0D01*
G01*
X150725000Y-37200000D01*
G75*
G02*
X150475000Y-36950000I0J250000D01*
G01*
X150475000Y-36150000D01*
G75*
G02*
X150725000Y-35900000I250000J0D01*
G01*
G37*
G36*
G01*
X150725000Y-32800000D02*
X151975000Y-32800000D01*
G75*
G02*
X152225000Y-33050000I0J-250000D01*
G01*
X152225000Y-33850000D01*
G75*
G02*
X151975000Y-34100000I-250000J0D01*
G01*
X150725000Y-34100000D01*
G75*
G02*
X150475000Y-33850000I0J250000D01*
G01*
X150475000Y-33050000D01*
G75*
G02*
X150725000Y-32800000I250000J0D01*
G01*
G37*
%TD*%
%TO.C,R26*%
G36*
G01*
X129725000Y-35900000D02*
X130975000Y-35900000D01*
G75*
G02*
X131225000Y-36150000I0J-250000D01*
G01*
X131225000Y-36950000D01*
G75*
G02*
X130975000Y-37200000I-250000J0D01*
G01*
X129725000Y-37200000D01*
G75*
G02*
X129475000Y-36950000I0J250000D01*
G01*
X129475000Y-36150000D01*
G75*
G02*
X129725000Y-35900000I250000J0D01*
G01*
G37*
G36*
G01*
X129725000Y-32800000D02*
X130975000Y-32800000D01*
G75*
G02*
X131225000Y-33050000I0J-250000D01*
G01*
X131225000Y-33850000D01*
G75*
G02*
X130975000Y-34100000I-250000J0D01*
G01*
X129725000Y-34100000D01*
G75*
G02*
X129475000Y-33850000I0J250000D01*
G01*
X129475000Y-33050000D01*
G75*
G02*
X129725000Y-32800000I250000J0D01*
G01*
G37*
%TD*%
%TO.C,R25*%
G36*
G01*
X108725000Y-35900000D02*
X109975000Y-35900000D01*
G75*
G02*
X110225000Y-36150000I0J-250000D01*
G01*
X110225000Y-36950000D01*
G75*
G02*
X109975000Y-37200000I-250000J0D01*
G01*
X108725000Y-37200000D01*
G75*
G02*
X108475000Y-36950000I0J250000D01*
G01*
X108475000Y-36150000D01*
G75*
G02*
X108725000Y-35900000I250000J0D01*
G01*
G37*
G36*
G01*
X108725000Y-32800000D02*
X109975000Y-32800000D01*
G75*
G02*
X110225000Y-33050000I0J-250000D01*
G01*
X110225000Y-33850000D01*
G75*
G02*
X109975000Y-34100000I-250000J0D01*
G01*
X108725000Y-34100000D01*
G75*
G02*
X108475000Y-33850000I0J250000D01*
G01*
X108475000Y-33050000D01*
G75*
G02*
X108725000Y-32800000I250000J0D01*
G01*
G37*
%TD*%
%TO.C,R24*%
G36*
G01*
X87725000Y-35900000D02*
X88975000Y-35900000D01*
G75*
G02*
X89225000Y-36150000I0J-250000D01*
G01*
X89225000Y-36950000D01*
G75*
G02*
X88975000Y-37200000I-250000J0D01*
G01*
X87725000Y-37200000D01*
G75*
G02*
X87475000Y-36950000I0J250000D01*
G01*
X87475000Y-36150000D01*
G75*
G02*
X87725000Y-35900000I250000J0D01*
G01*
G37*
G36*
G01*
X87725000Y-32800000D02*
X88975000Y-32800000D01*
G75*
G02*
X89225000Y-33050000I0J-250000D01*
G01*
X89225000Y-33850000D01*
G75*
G02*
X88975000Y-34100000I-250000J0D01*
G01*
X87725000Y-34100000D01*
G75*
G02*
X87475000Y-33850000I0J250000D01*
G01*
X87475000Y-33050000D01*
G75*
G02*
X87725000Y-32800000I250000J0D01*
G01*
G37*
%TD*%
%TO.C,R23*%
G36*
G01*
X174265000Y-35900000D02*
X175515000Y-35900000D01*
G75*
G02*
X175765000Y-36150000I0J-250000D01*
G01*
X175765000Y-36950000D01*
G75*
G02*
X175515000Y-37200000I-250000J0D01*
G01*
X174265000Y-37200000D01*
G75*
G02*
X174015000Y-36950000I0J250000D01*
G01*
X174015000Y-36150000D01*
G75*
G02*
X174265000Y-35900000I250000J0D01*
G01*
G37*
G36*
G01*
X174265000Y-32800000D02*
X175515000Y-32800000D01*
G75*
G02*
X175765000Y-33050000I0J-250000D01*
G01*
X175765000Y-33850000D01*
G75*
G02*
X175515000Y-34100000I-250000J0D01*
G01*
X174265000Y-34100000D01*
G75*
G02*
X174015000Y-33850000I0J250000D01*
G01*
X174015000Y-33050000D01*
G75*
G02*
X174265000Y-32800000I250000J0D01*
G01*
G37*
%TD*%
%TO.C,R22*%
G36*
G01*
X153265000Y-35900000D02*
X154515000Y-35900000D01*
G75*
G02*
X154765000Y-36150000I0J-250000D01*
G01*
X154765000Y-36950000D01*
G75*
G02*
X154515000Y-37200000I-250000J0D01*
G01*
X153265000Y-37200000D01*
G75*
G02*
X153015000Y-36950000I0J250000D01*
G01*
X153015000Y-36150000D01*
G75*
G02*
X153265000Y-35900000I250000J0D01*
G01*
G37*
G36*
G01*
X153265000Y-32800000D02*
X154515000Y-32800000D01*
G75*
G02*
X154765000Y-33050000I0J-250000D01*
G01*
X154765000Y-33850000D01*
G75*
G02*
X154515000Y-34100000I-250000J0D01*
G01*
X153265000Y-34100000D01*
G75*
G02*
X153015000Y-33850000I0J250000D01*
G01*
X153015000Y-33050000D01*
G75*
G02*
X153265000Y-32800000I250000J0D01*
G01*
G37*
%TD*%
%TO.C,R21*%
G36*
G01*
X132265000Y-32800000D02*
X133515000Y-32800000D01*
G75*
G02*
X133765000Y-33050000I0J-250000D01*
G01*
X133765000Y-33850000D01*
G75*
G02*
X133515000Y-34100000I-250000J0D01*
G01*
X132265000Y-34100000D01*
G75*
G02*
X132015000Y-33850000I0J250000D01*
G01*
X132015000Y-33050000D01*
G75*
G02*
X132265000Y-32800000I250000J0D01*
G01*
G37*
G36*
G01*
X132265000Y-35900000D02*
X133515000Y-35900000D01*
G75*
G02*
X133765000Y-36150000I0J-250000D01*
G01*
X133765000Y-36950000D01*
G75*
G02*
X133515000Y-37200000I-250000J0D01*
G01*
X132265000Y-37200000D01*
G75*
G02*
X132015000Y-36950000I0J250000D01*
G01*
X132015000Y-36150000D01*
G75*
G02*
X132265000Y-35900000I250000J0D01*
G01*
G37*
%TD*%
%TO.C,R20*%
G36*
G01*
X111265000Y-35900000D02*
X112515000Y-35900000D01*
G75*
G02*
X112765000Y-36150000I0J-250000D01*
G01*
X112765000Y-36950000D01*
G75*
G02*
X112515000Y-37200000I-250000J0D01*
G01*
X111265000Y-37200000D01*
G75*
G02*
X111015000Y-36950000I0J250000D01*
G01*
X111015000Y-36150000D01*
G75*
G02*
X111265000Y-35900000I250000J0D01*
G01*
G37*
G36*
G01*
X111265000Y-32800000D02*
X112515000Y-32800000D01*
G75*
G02*
X112765000Y-33050000I0J-250000D01*
G01*
X112765000Y-33850000D01*
G75*
G02*
X112515000Y-34100000I-250000J0D01*
G01*
X111265000Y-34100000D01*
G75*
G02*
X111015000Y-33850000I0J250000D01*
G01*
X111015000Y-33050000D01*
G75*
G02*
X111265000Y-32800000I250000J0D01*
G01*
G37*
%TD*%
%TO.C,R19*%
G36*
G01*
X90265000Y-35900000D02*
X91515000Y-35900000D01*
G75*
G02*
X91765000Y-36150000I0J-250000D01*
G01*
X91765000Y-36950000D01*
G75*
G02*
X91515000Y-37200000I-250000J0D01*
G01*
X90265000Y-37200000D01*
G75*
G02*
X90015000Y-36950000I0J250000D01*
G01*
X90015000Y-36150000D01*
G75*
G02*
X90265000Y-35900000I250000J0D01*
G01*
G37*
G36*
G01*
X90265000Y-32800000D02*
X91515000Y-32800000D01*
G75*
G02*
X91765000Y-33050000I0J-250000D01*
G01*
X91765000Y-33850000D01*
G75*
G02*
X91515000Y-34100000I-250000J0D01*
G01*
X90265000Y-34100000D01*
G75*
G02*
X90015000Y-33850000I0J250000D01*
G01*
X90015000Y-33050000D01*
G75*
G02*
X90265000Y-32800000I250000J0D01*
G01*
G37*
%TD*%
%TO.C,R18*%
G36*
G01*
X66725000Y-35900000D02*
X67975000Y-35900000D01*
G75*
G02*
X68225000Y-36150000I0J-250000D01*
G01*
X68225000Y-36950000D01*
G75*
G02*
X67975000Y-37200000I-250000J0D01*
G01*
X66725000Y-37200000D01*
G75*
G02*
X66475000Y-36950000I0J250000D01*
G01*
X66475000Y-36150000D01*
G75*
G02*
X66725000Y-35900000I250000J0D01*
G01*
G37*
G36*
G01*
X66725000Y-32800000D02*
X67975000Y-32800000D01*
G75*
G02*
X68225000Y-33050000I0J-250000D01*
G01*
X68225000Y-33850000D01*
G75*
G02*
X67975000Y-34100000I-250000J0D01*
G01*
X66725000Y-34100000D01*
G75*
G02*
X66475000Y-33850000I0J250000D01*
G01*
X66475000Y-33050000D01*
G75*
G02*
X66725000Y-32800000I250000J0D01*
G01*
G37*
%TD*%
%TO.C,R17*%
G36*
G01*
X69265000Y-35900000D02*
X70515000Y-35900000D01*
G75*
G02*
X70765000Y-36150000I0J-250000D01*
G01*
X70765000Y-36950000D01*
G75*
G02*
X70515000Y-37200000I-250000J0D01*
G01*
X69265000Y-37200000D01*
G75*
G02*
X69015000Y-36950000I0J250000D01*
G01*
X69015000Y-36150000D01*
G75*
G02*
X69265000Y-35900000I250000J0D01*
G01*
G37*
G36*
G01*
X69265000Y-32800000D02*
X70515000Y-32800000D01*
G75*
G02*
X70765000Y-33050000I0J-250000D01*
G01*
X70765000Y-33850000D01*
G75*
G02*
X70515000Y-34100000I-250000J0D01*
G01*
X69265000Y-34100000D01*
G75*
G02*
X69015000Y-33850000I0J250000D01*
G01*
X69015000Y-33050000D01*
G75*
G02*
X69265000Y-32800000I250000J0D01*
G01*
G37*
%TD*%
%TO.C,R16*%
G36*
G01*
X99365800Y-73290000D02*
X98115800Y-73290000D01*
G75*
G02*
X97865800Y-73040000I0J250000D01*
G01*
X97865800Y-72240000D01*
G75*
G02*
X98115800Y-71990000I250000J0D01*
G01*
X99365800Y-71990000D01*
G75*
G02*
X99615800Y-72240000I0J-250000D01*
G01*
X99615800Y-73040000D01*
G75*
G02*
X99365800Y-73290000I-250000J0D01*
G01*
G37*
G36*
G01*
X99365800Y-76390000D02*
X98115800Y-76390000D01*
G75*
G02*
X97865800Y-76140000I0J250000D01*
G01*
X97865800Y-75340000D01*
G75*
G02*
X98115800Y-75090000I250000J0D01*
G01*
X99365800Y-75090000D01*
G75*
G02*
X99615800Y-75340000I0J-250000D01*
G01*
X99615800Y-76140000D01*
G75*
G02*
X99365800Y-76390000I-250000J0D01*
G01*
G37*
%TD*%
%TO.C,U10*%
X64240000Y-99460000D03*
X64240000Y-96920000D03*
X72740000Y-96920000D03*
X72740000Y-99460000D03*
%TD*%
%TO.C,R14*%
G36*
G01*
X54730000Y-98835000D02*
X54730000Y-100085000D01*
G75*
G02*
X54480000Y-100335000I-250000J0D01*
G01*
X53680000Y-100335000D01*
G75*
G02*
X53430000Y-100085000I0J250000D01*
G01*
X53430000Y-98835000D01*
G75*
G02*
X53680000Y-98585000I250000J0D01*
G01*
X54480000Y-98585000D01*
G75*
G02*
X54730000Y-98835000I0J-250000D01*
G01*
G37*
G36*
G01*
X57830000Y-98835000D02*
X57830000Y-100085000D01*
G75*
G02*
X57580000Y-100335000I-250000J0D01*
G01*
X56780000Y-100335000D01*
G75*
G02*
X56530000Y-100085000I0J250000D01*
G01*
X56530000Y-98835000D01*
G75*
G02*
X56780000Y-98585000I250000J0D01*
G01*
X57580000Y-98585000D01*
G75*
G02*
X57830000Y-98835000I0J-250000D01*
G01*
G37*
%TD*%
%TO.C,R13*%
G36*
G01*
X86665800Y-88530000D02*
X85415800Y-88530000D01*
G75*
G02*
X85165800Y-88280000I0J250000D01*
G01*
X85165800Y-87480000D01*
G75*
G02*
X85415800Y-87230000I250000J0D01*
G01*
X86665800Y-87230000D01*
G75*
G02*
X86915800Y-87480000I0J-250000D01*
G01*
X86915800Y-88280000D01*
G75*
G02*
X86665800Y-88530000I-250000J0D01*
G01*
G37*
G36*
G01*
X86665800Y-91630000D02*
X85415800Y-91630000D01*
G75*
G02*
X85165800Y-91380000I0J250000D01*
G01*
X85165800Y-90580000D01*
G75*
G02*
X85415800Y-90330000I250000J0D01*
G01*
X86665800Y-90330000D01*
G75*
G02*
X86915800Y-90580000I0J-250000D01*
G01*
X86915800Y-91380000D01*
G75*
G02*
X86665800Y-91630000I-250000J0D01*
G01*
G37*
%TD*%
%TO.C,R12*%
G36*
G01*
X45725000Y-35900000D02*
X46975000Y-35900000D01*
G75*
G02*
X47225000Y-36150000I0J-250000D01*
G01*
X47225000Y-36950000D01*
G75*
G02*
X46975000Y-37200000I-250000J0D01*
G01*
X45725000Y-37200000D01*
G75*
G02*
X45475000Y-36950000I0J250000D01*
G01*
X45475000Y-36150000D01*
G75*
G02*
X45725000Y-35900000I250000J0D01*
G01*
G37*
G36*
G01*
X45725000Y-32800000D02*
X46975000Y-32800000D01*
G75*
G02*
X47225000Y-33050000I0J-250000D01*
G01*
X47225000Y-33850000D01*
G75*
G02*
X46975000Y-34100000I-250000J0D01*
G01*
X45725000Y-34100000D01*
G75*
G02*
X45475000Y-33850000I0J250000D01*
G01*
X45475000Y-33050000D01*
G75*
G02*
X45725000Y-32800000I250000J0D01*
G01*
G37*
%TD*%
%TO.C,R11*%
G36*
G01*
X48265000Y-35900000D02*
X49515000Y-35900000D01*
G75*
G02*
X49765000Y-36150000I0J-250000D01*
G01*
X49765000Y-36950000D01*
G75*
G02*
X49515000Y-37200000I-250000J0D01*
G01*
X48265000Y-37200000D01*
G75*
G02*
X48015000Y-36950000I0J250000D01*
G01*
X48015000Y-36150000D01*
G75*
G02*
X48265000Y-35900000I250000J0D01*
G01*
G37*
G36*
G01*
X48265000Y-32800000D02*
X49515000Y-32800000D01*
G75*
G02*
X49765000Y-33050000I0J-250000D01*
G01*
X49765000Y-33850000D01*
G75*
G02*
X49515000Y-34100000I-250000J0D01*
G01*
X48265000Y-34100000D01*
G75*
G02*
X48015000Y-33850000I0J250000D01*
G01*
X48015000Y-33050000D01*
G75*
G02*
X48265000Y-32800000I250000J0D01*
G01*
G37*
%TD*%
%TO.C,R10*%
G36*
G01*
X123375000Y-57090000D02*
X124625000Y-57090000D01*
G75*
G02*
X124875000Y-57340000I0J-250000D01*
G01*
X124875000Y-58140000D01*
G75*
G02*
X124625000Y-58390000I-250000J0D01*
G01*
X123375000Y-58390000D01*
G75*
G02*
X123125000Y-58140000I0J250000D01*
G01*
X123125000Y-57340000D01*
G75*
G02*
X123375000Y-57090000I250000J0D01*
G01*
G37*
G36*
G01*
X123375000Y-53990000D02*
X124625000Y-53990000D01*
G75*
G02*
X124875000Y-54240000I0J-250000D01*
G01*
X124875000Y-55040000D01*
G75*
G02*
X124625000Y-55290000I-250000J0D01*
G01*
X123375000Y-55290000D01*
G75*
G02*
X123125000Y-55040000I0J250000D01*
G01*
X123125000Y-54240000D01*
G75*
G02*
X123375000Y-53990000I250000J0D01*
G01*
G37*
%TD*%
%TO.C,R9*%
G36*
G01*
X123375000Y-49470000D02*
X124625000Y-49470000D01*
G75*
G02*
X124875000Y-49720000I0J-250000D01*
G01*
X124875000Y-50520000D01*
G75*
G02*
X124625000Y-50770000I-250000J0D01*
G01*
X123375000Y-50770000D01*
G75*
G02*
X123125000Y-50520000I0J250000D01*
G01*
X123125000Y-49720000D01*
G75*
G02*
X123375000Y-49470000I250000J0D01*
G01*
G37*
G36*
G01*
X123375000Y-46370000D02*
X124625000Y-46370000D01*
G75*
G02*
X124875000Y-46620000I0J-250000D01*
G01*
X124875000Y-47420000D01*
G75*
G02*
X124625000Y-47670000I-250000J0D01*
G01*
X123375000Y-47670000D01*
G75*
G02*
X123125000Y-47420000I0J250000D01*
G01*
X123125000Y-46620000D01*
G75*
G02*
X123375000Y-46370000I250000J0D01*
G01*
G37*
%TD*%
D16*
%TO.C,U16*%
X125885800Y-94835000D03*
X122835800Y-91485000D03*
X122835800Y-94835000D03*
X125885800Y-91485000D03*
D17*
X126640800Y-99460000D03*
X122080800Y-99460000D03*
%TD*%
D15*
%TO.C,U19*%
X64240000Y-63460000D03*
X64240000Y-60920000D03*
X72740000Y-60920000D03*
X72740000Y-63460000D03*
%TD*%
%TO.C,U18*%
X64240000Y-75460000D03*
X64240000Y-72920000D03*
X72740000Y-72920000D03*
X72740000Y-75460000D03*
%TD*%
%TO.C,U17*%
X72740000Y-51460000D03*
X72740000Y-48920000D03*
X64240000Y-48920000D03*
X64240000Y-51460000D03*
%TD*%
%TO.C,R8*%
G36*
G01*
X54730000Y-62835000D02*
X54730000Y-64085000D01*
G75*
G02*
X54480000Y-64335000I-250000J0D01*
G01*
X53680000Y-64335000D01*
G75*
G02*
X53430000Y-64085000I0J250000D01*
G01*
X53430000Y-62835000D01*
G75*
G02*
X53680000Y-62585000I250000J0D01*
G01*
X54480000Y-62585000D01*
G75*
G02*
X54730000Y-62835000I0J-250000D01*
G01*
G37*
G36*
G01*
X57830000Y-62835000D02*
X57830000Y-64085000D01*
G75*
G02*
X57580000Y-64335000I-250000J0D01*
G01*
X56780000Y-64335000D01*
G75*
G02*
X56530000Y-64085000I0J250000D01*
G01*
X56530000Y-62835000D01*
G75*
G02*
X56780000Y-62585000I250000J0D01*
G01*
X57580000Y-62585000D01*
G75*
G02*
X57830000Y-62835000I0J-250000D01*
G01*
G37*
%TD*%
%TO.C,R7*%
G36*
G01*
X54730000Y-74835000D02*
X54730000Y-76085000D01*
G75*
G02*
X54480000Y-76335000I-250000J0D01*
G01*
X53680000Y-76335000D01*
G75*
G02*
X53430000Y-76085000I0J250000D01*
G01*
X53430000Y-74835000D01*
G75*
G02*
X53680000Y-74585000I250000J0D01*
G01*
X54480000Y-74585000D01*
G75*
G02*
X54730000Y-74835000I0J-250000D01*
G01*
G37*
G36*
G01*
X57830000Y-74835000D02*
X57830000Y-76085000D01*
G75*
G02*
X57580000Y-76335000I-250000J0D01*
G01*
X56780000Y-76335000D01*
G75*
G02*
X56530000Y-76085000I0J250000D01*
G01*
X56530000Y-74835000D01*
G75*
G02*
X56780000Y-74585000I250000J0D01*
G01*
X57580000Y-74585000D01*
G75*
G02*
X57830000Y-74835000I0J-250000D01*
G01*
G37*
%TD*%
%TO.C,R6*%
G36*
G01*
X54730000Y-50835000D02*
X54730000Y-52085000D01*
G75*
G02*
X54480000Y-52335000I-250000J0D01*
G01*
X53680000Y-52335000D01*
G75*
G02*
X53430000Y-52085000I0J250000D01*
G01*
X53430000Y-50835000D01*
G75*
G02*
X53680000Y-50585000I250000J0D01*
G01*
X54480000Y-50585000D01*
G75*
G02*
X54730000Y-50835000I0J-250000D01*
G01*
G37*
G36*
G01*
X57830000Y-50835000D02*
X57830000Y-52085000D01*
G75*
G02*
X57580000Y-52335000I-250000J0D01*
G01*
X56780000Y-52335000D01*
G75*
G02*
X56530000Y-52085000I0J250000D01*
G01*
X56530000Y-50835000D01*
G75*
G02*
X56780000Y-50585000I250000J0D01*
G01*
X57580000Y-50585000D01*
G75*
G02*
X57830000Y-50835000I0J-250000D01*
G01*
G37*
%TD*%
%TO.C,R5*%
G36*
G01*
X82875800Y-75090000D02*
X84125800Y-75090000D01*
G75*
G02*
X84375800Y-75340000I0J-250000D01*
G01*
X84375800Y-76140000D01*
G75*
G02*
X84125800Y-76390000I-250000J0D01*
G01*
X82875800Y-76390000D01*
G75*
G02*
X82625800Y-76140000I0J250000D01*
G01*
X82625800Y-75340000D01*
G75*
G02*
X82875800Y-75090000I250000J0D01*
G01*
G37*
G36*
G01*
X82875800Y-71990000D02*
X84125800Y-71990000D01*
G75*
G02*
X84375800Y-72240000I0J-250000D01*
G01*
X84375800Y-73040000D01*
G75*
G02*
X84125800Y-73290000I-250000J0D01*
G01*
X82875800Y-73290000D01*
G75*
G02*
X82625800Y-73040000I0J250000D01*
G01*
X82625800Y-72240000D01*
G75*
G02*
X82875800Y-71990000I250000J0D01*
G01*
G37*
%TD*%
%TO.C,R4*%
G36*
G01*
X77795800Y-75090000D02*
X79045800Y-75090000D01*
G75*
G02*
X79295800Y-75340000I0J-250000D01*
G01*
X79295800Y-76140000D01*
G75*
G02*
X79045800Y-76390000I-250000J0D01*
G01*
X77795800Y-76390000D01*
G75*
G02*
X77545800Y-76140000I0J250000D01*
G01*
X77545800Y-75340000D01*
G75*
G02*
X77795800Y-75090000I250000J0D01*
G01*
G37*
G36*
G01*
X77795800Y-71990000D02*
X79045800Y-71990000D01*
G75*
G02*
X79295800Y-72240000I0J-250000D01*
G01*
X79295800Y-73040000D01*
G75*
G02*
X79045800Y-73290000I-250000J0D01*
G01*
X77795800Y-73290000D01*
G75*
G02*
X77545800Y-73040000I0J250000D01*
G01*
X77545800Y-72240000D01*
G75*
G02*
X77795800Y-71990000I250000J0D01*
G01*
G37*
%TD*%
%TO.C,R3*%
G36*
G01*
X87955800Y-75090000D02*
X89205800Y-75090000D01*
G75*
G02*
X89455800Y-75340000I0J-250000D01*
G01*
X89455800Y-76140000D01*
G75*
G02*
X89205800Y-76390000I-250000J0D01*
G01*
X87955800Y-76390000D01*
G75*
G02*
X87705800Y-76140000I0J250000D01*
G01*
X87705800Y-75340000D01*
G75*
G02*
X87955800Y-75090000I250000J0D01*
G01*
G37*
G36*
G01*
X87955800Y-71990000D02*
X89205800Y-71990000D01*
G75*
G02*
X89455800Y-72240000I0J-250000D01*
G01*
X89455800Y-73040000D01*
G75*
G02*
X89205800Y-73290000I-250000J0D01*
G01*
X87955800Y-73290000D01*
G75*
G02*
X87705800Y-73040000I0J250000D01*
G01*
X87705800Y-72240000D01*
G75*
G02*
X87955800Y-71990000I250000J0D01*
G01*
G37*
%TD*%
D18*
%TO.C,U5*%
X221500000Y-107000000D03*
X221500000Y-105000000D03*
X221500000Y-103000000D03*
X221500000Y-101000000D03*
X221500000Y-99000000D03*
X221500000Y-97000000D03*
X221500000Y-95000000D03*
X221500000Y-93000000D03*
X206700000Y-93000000D03*
X206700000Y-95000000D03*
X206700000Y-97000000D03*
X206700000Y-99000000D03*
X206700000Y-101000000D03*
X206700000Y-103000000D03*
X206700000Y-105000000D03*
X206700000Y-107000000D03*
%TD*%
%TO.C,R2*%
G36*
G01*
X54730000Y-86835000D02*
X54730000Y-88085000D01*
G75*
G02*
X54480000Y-88335000I-250000J0D01*
G01*
X53680000Y-88335000D01*
G75*
G02*
X53430000Y-88085000I0J250000D01*
G01*
X53430000Y-86835000D01*
G75*
G02*
X53680000Y-86585000I250000J0D01*
G01*
X54480000Y-86585000D01*
G75*
G02*
X54730000Y-86835000I0J-250000D01*
G01*
G37*
G36*
G01*
X57830000Y-86835000D02*
X57830000Y-88085000D01*
G75*
G02*
X57580000Y-88335000I-250000J0D01*
G01*
X56780000Y-88335000D01*
G75*
G02*
X56530000Y-88085000I0J250000D01*
G01*
X56530000Y-86835000D01*
G75*
G02*
X56780000Y-86585000I250000J0D01*
G01*
X57580000Y-86585000D01*
G75*
G02*
X57830000Y-86835000I0J-250000D01*
G01*
G37*
%TD*%
%TO.C,R1*%
G36*
G01*
X81585800Y-88530000D02*
X80335800Y-88530000D01*
G75*
G02*
X80085800Y-88280000I0J250000D01*
G01*
X80085800Y-87480000D01*
G75*
G02*
X80335800Y-87230000I250000J0D01*
G01*
X81585800Y-87230000D01*
G75*
G02*
X81835800Y-87480000I0J-250000D01*
G01*
X81835800Y-88280000D01*
G75*
G02*
X81585800Y-88530000I-250000J0D01*
G01*
G37*
G36*
G01*
X81585800Y-91630000D02*
X80335800Y-91630000D01*
G75*
G02*
X80085800Y-91380000I0J250000D01*
G01*
X80085800Y-90580000D01*
G75*
G02*
X80335800Y-90330000I250000J0D01*
G01*
X81585800Y-90330000D01*
G75*
G02*
X81835800Y-90580000I0J-250000D01*
G01*
X81835800Y-91380000D01*
G75*
G02*
X81585800Y-91630000I-250000J0D01*
G01*
G37*
%TD*%
D15*
%TO.C,U1*%
X64240000Y-87460000D03*
X64240000Y-84920000D03*
X72740000Y-84920000D03*
X72740000Y-87460000D03*
%TD*%
M02*
