%TF.GenerationSoftware,KiCad,Pcbnew,(5.1.7)-1*%
%TF.CreationDate,2020-11-03T10:53:37+01:00*%
%TF.ProjectId,PCB,5043422e-6b69-4636-9164-5f7063625858,rev?*%
%TF.SameCoordinates,Original*%
%TF.FileFunction,Soldermask,Top*%
%TF.FilePolarity,Negative*%
%FSLAX46Y46*%
G04 Gerber Fmt 4.6, Leading zero omitted, Abs format (unit mm)*
G04 Created by KiCad (PCBNEW (5.1.7)-1) date 2020-11-03 10:53:37*
%MOMM*%
%LPD*%
G01*
G04 APERTURE LIST*
%ADD10C,2.200000*%
%ADD11O,1.727200X1.727200*%
%ADD12O,1.727200X2.250000*%
%ADD13R,1.727200X2.250000*%
%ADD14O,1.700000X1.700000*%
%ADD15R,1.700000X1.700000*%
%ADD16R,2.200000X1.200000*%
%ADD17R,6.400000X5.800000*%
%ADD18C,1.600000*%
%ADD19R,2.100000X2.100000*%
%ADD20C,2.100000*%
%ADD21R,0.800000X0.900000*%
%ADD22R,2.665000X4.190000*%
%ADD23R,1.780000X4.190000*%
%ADD24O,1.600000X1.600000*%
%ADD25R,1.600000X1.600000*%
%ADD26R,2.250000X1.727200*%
%ADD27O,2.250000X1.727200*%
%ADD28R,2.250000X1.600000*%
%ADD29O,2.000000X1.905000*%
%ADD30R,2.000000X1.905000*%
%ADD31O,3.500000X3.500000*%
%ADD32O,2.200000X2.200000*%
%ADD33R,2.200000X2.200000*%
%ADD34C,0.100000*%
%ADD35R,1.500000X1.050000*%
%ADD36O,1.500000X1.050000*%
%ADD37C,2.600000*%
%ADD38R,5.800000X6.400000*%
%ADD39R,1.200000X2.200000*%
%ADD40C,1.590000*%
%ADD41R,1.590000X1.590000*%
%ADD42C,1.650000*%
%ADD43R,1.650000X1.650000*%
%ADD44R,1.950000X1.050000*%
G04 APERTURE END LIST*
D10*
%TO.C,H7*%
X189600000Y-98000000D03*
%TD*%
%TO.C,H6*%
X238600000Y-23000000D03*
%TD*%
%TO.C,H5*%
X189600000Y-23000000D03*
%TD*%
%TO.C,H4*%
X182000000Y-98000000D03*
%TD*%
%TO.C,H3*%
X23000000Y-98000000D03*
%TD*%
%TO.C,H2*%
X182000000Y-23000000D03*
%TD*%
%TO.C,H1*%
X22860000Y-22860000D03*
%TD*%
D11*
%TO.C,U4*%
X122870800Y-72930000D03*
X122870800Y-75470000D03*
D12*
X126731600Y-81810000D03*
X124140800Y-81810000D03*
X121600800Y-81810000D03*
X119060800Y-81810000D03*
X116520800Y-81810000D03*
X113980800Y-81810000D03*
X111440800Y-81810000D03*
X108900800Y-81810000D03*
X106360800Y-81810000D03*
X103820800Y-81810000D03*
X101280800Y-81810000D03*
X98740800Y-81810000D03*
X96200800Y-81810000D03*
X93660800Y-81810000D03*
X91120800Y-81810000D03*
X88580800Y-81810000D03*
X86040800Y-81810000D03*
X83500800Y-81810000D03*
X80960800Y-81810000D03*
X78420800Y-81810000D03*
X78420800Y-66570000D03*
X80960800Y-66570000D03*
X83500800Y-66570000D03*
X86040800Y-66570000D03*
X88580800Y-66570000D03*
X91120800Y-66570000D03*
X93660800Y-66570000D03*
X96200800Y-66570000D03*
X98740800Y-66570000D03*
X101280800Y-66570000D03*
X103820800Y-66570000D03*
X106360800Y-66570000D03*
X108900800Y-66570000D03*
X111440800Y-66570000D03*
X113980800Y-66570000D03*
X116520800Y-66570000D03*
X119060800Y-66570000D03*
X121600800Y-66570000D03*
X124140800Y-66570000D03*
D13*
X126680800Y-66570000D03*
%TD*%
D14*
%TO.C,SPECTRAL1*%
X96200800Y-60220000D03*
X93660800Y-60220000D03*
X91120800Y-60220000D03*
X88580800Y-60220000D03*
X86040800Y-60220000D03*
D15*
X83500800Y-60220000D03*
%TD*%
D16*
%TO.C,U23*%
X228600000Y-92100000D03*
X228600000Y-96660000D03*
D17*
X234900000Y-94380000D03*
%TD*%
D18*
%TO.C,C12*%
X231100000Y-86760000D03*
X228600000Y-86760000D03*
%TD*%
%TO.C,C11*%
X228600000Y-104540000D03*
X228600000Y-102040000D03*
%TD*%
D19*
%TO.C,5V_IN*%
X237600000Y-104540000D03*
D20*
X237600000Y-102000000D03*
%TD*%
%TO.C,5V_OUT*%
X126900800Y-106000000D03*
D19*
X124360800Y-106000000D03*
%TD*%
D15*
%TO.C,I2C*%
X229600000Y-50979200D03*
D14*
X229600000Y-53519200D03*
X229600000Y-56059200D03*
%TD*%
%TO.C,R38*%
G36*
G01*
X94560800Y-86245000D02*
X94560800Y-84995000D01*
G75*
G02*
X94810800Y-84745000I250000J0D01*
G01*
X95610800Y-84745000D01*
G75*
G02*
X95860800Y-84995000I0J-250000D01*
G01*
X95860800Y-86245000D01*
G75*
G02*
X95610800Y-86495000I-250000J0D01*
G01*
X94810800Y-86495000D01*
G75*
G02*
X94560800Y-86245000I0J250000D01*
G01*
G37*
G36*
G01*
X91460800Y-86245000D02*
X91460800Y-84995000D01*
G75*
G02*
X91710800Y-84745000I250000J0D01*
G01*
X92510800Y-84745000D01*
G75*
G02*
X92760800Y-84995000I0J-250000D01*
G01*
X92760800Y-86245000D01*
G75*
G02*
X92510800Y-86495000I-250000J0D01*
G01*
X91710800Y-86495000D01*
G75*
G02*
X91460800Y-86245000I0J250000D01*
G01*
G37*
%TD*%
%TO.C,R37*%
G36*
G01*
X91530000Y-93885000D02*
X91530000Y-95135000D01*
G75*
G02*
X91280000Y-95385000I-250000J0D01*
G01*
X90480000Y-95385000D01*
G75*
G02*
X90230000Y-95135000I0J250000D01*
G01*
X90230000Y-93885000D01*
G75*
G02*
X90480000Y-93635000I250000J0D01*
G01*
X91280000Y-93635000D01*
G75*
G02*
X91530000Y-93885000I0J-250000D01*
G01*
G37*
G36*
G01*
X94630000Y-93885000D02*
X94630000Y-95135000D01*
G75*
G02*
X94380000Y-95385000I-250000J0D01*
G01*
X93580000Y-95385000D01*
G75*
G02*
X93330000Y-95135000I0J250000D01*
G01*
X93330000Y-93885000D01*
G75*
G02*
X93580000Y-93635000I250000J0D01*
G01*
X94380000Y-93635000D01*
G75*
G02*
X94630000Y-93885000I0J-250000D01*
G01*
G37*
%TD*%
%TO.C,R36*%
G36*
G01*
X102180800Y-86245000D02*
X102180800Y-84995000D01*
G75*
G02*
X102430800Y-84745000I250000J0D01*
G01*
X103230800Y-84745000D01*
G75*
G02*
X103480800Y-84995000I0J-250000D01*
G01*
X103480800Y-86245000D01*
G75*
G02*
X103230800Y-86495000I-250000J0D01*
G01*
X102430800Y-86495000D01*
G75*
G02*
X102180800Y-86245000I0J250000D01*
G01*
G37*
G36*
G01*
X99080800Y-86245000D02*
X99080800Y-84995000D01*
G75*
G02*
X99330800Y-84745000I250000J0D01*
G01*
X100130800Y-84745000D01*
G75*
G02*
X100380800Y-84995000I0J-250000D01*
G01*
X100380800Y-86245000D01*
G75*
G02*
X100130800Y-86495000I-250000J0D01*
G01*
X99330800Y-86495000D01*
G75*
G02*
X99080800Y-86245000I0J250000D01*
G01*
G37*
%TD*%
%TO.C,R32*%
G36*
G01*
X111070800Y-95135000D02*
X111070800Y-93885000D01*
G75*
G02*
X111320800Y-93635000I250000J0D01*
G01*
X112120800Y-93635000D01*
G75*
G02*
X112370800Y-93885000I0J-250000D01*
G01*
X112370800Y-95135000D01*
G75*
G02*
X112120800Y-95385000I-250000J0D01*
G01*
X111320800Y-95385000D01*
G75*
G02*
X111070800Y-95135000I0J250000D01*
G01*
G37*
G36*
G01*
X107970800Y-95135000D02*
X107970800Y-93885000D01*
G75*
G02*
X108220800Y-93635000I250000J0D01*
G01*
X109020800Y-93635000D01*
G75*
G02*
X109270800Y-93885000I0J-250000D01*
G01*
X109270800Y-95135000D01*
G75*
G02*
X109020800Y-95385000I-250000J0D01*
G01*
X108220800Y-95385000D01*
G75*
G02*
X107970800Y-95135000I0J250000D01*
G01*
G37*
%TD*%
%TO.C,R15*%
G36*
G01*
X99110800Y-93885000D02*
X99110800Y-95135000D01*
G75*
G02*
X98860800Y-95385000I-250000J0D01*
G01*
X98060800Y-95385000D01*
G75*
G02*
X97810800Y-95135000I0J250000D01*
G01*
X97810800Y-93885000D01*
G75*
G02*
X98060800Y-93635000I250000J0D01*
G01*
X98860800Y-93635000D01*
G75*
G02*
X99110800Y-93885000I0J-250000D01*
G01*
G37*
G36*
G01*
X102210800Y-93885000D02*
X102210800Y-95135000D01*
G75*
G02*
X101960800Y-95385000I-250000J0D01*
G01*
X101160800Y-95385000D01*
G75*
G02*
X100910800Y-95135000I0J250000D01*
G01*
X100910800Y-93885000D01*
G75*
G02*
X101160800Y-93635000I250000J0D01*
G01*
X101960800Y-93635000D01*
G75*
G02*
X102210800Y-93885000I0J-250000D01*
G01*
G37*
%TD*%
D21*
%TO.C,Q10*%
X92390800Y-88430000D03*
X93340800Y-90430000D03*
X91440800Y-90430000D03*
%TD*%
%TO.C,Q6*%
X100010800Y-88430000D03*
X100960800Y-90430000D03*
X99060800Y-90430000D03*
%TD*%
D14*
%TO.C,WATER_LVL*%
X91440000Y-98000000D03*
X93980000Y-98000000D03*
D15*
X96520000Y-98000000D03*
%TD*%
D14*
%TO.C,I2C*%
X101600000Y-98000000D03*
X104140000Y-98000000D03*
D15*
X106680000Y-98000000D03*
%TD*%
D22*
%TO.C,ANT*%
X191107500Y-107000000D03*
D23*
X194600000Y-107000000D03*
D22*
X198092500Y-107000000D03*
%TD*%
D24*
%TO.C,U15*%
X166620000Y-99190000D03*
X159000000Y-106810000D03*
X166620000Y-101730000D03*
X159000000Y-104270000D03*
X166620000Y-104270000D03*
X159000000Y-101730000D03*
X166620000Y-106810000D03*
D25*
X159000000Y-99190000D03*
%TD*%
D20*
%TO.C,VIN*%
X181000000Y-102000000D03*
D19*
X181000000Y-104540000D03*
%TD*%
D15*
%TO.C,DEBUG*%
X229600000Y-40819200D03*
D14*
X229600000Y-43359200D03*
X229600000Y-45899200D03*
%TD*%
D15*
%TO.C,SERIAL*%
X229600000Y-71299200D03*
D14*
X229600000Y-73839200D03*
X229600000Y-76379200D03*
%TD*%
D26*
%TO.C,U24*%
X206480000Y-40819200D03*
D27*
X206480000Y-43359200D03*
X206480000Y-45899200D03*
X206480000Y-48439200D03*
X206480000Y-50979200D03*
X206480000Y-53519200D03*
X206480000Y-56059200D03*
X206480000Y-58599200D03*
X206480000Y-61139200D03*
X206480000Y-63679200D03*
X206480000Y-66219200D03*
X206480000Y-68759200D03*
X206480000Y-71299200D03*
X206480000Y-73839200D03*
X206480000Y-76379200D03*
X206480000Y-78919200D03*
X206480000Y-81459200D03*
X206480000Y-83999200D03*
X206480000Y-86539200D03*
X206480000Y-89079200D03*
X221720000Y-89079200D03*
X221720000Y-86539200D03*
X221720000Y-83999200D03*
X221720000Y-81459200D03*
X221720000Y-78919200D03*
X221720000Y-76379200D03*
X221720000Y-73839200D03*
X221720000Y-71299200D03*
X221720000Y-68759200D03*
X221720000Y-66219200D03*
X221720000Y-63679200D03*
X221720000Y-61139200D03*
X221720000Y-58599200D03*
X221720000Y-56059200D03*
X221720000Y-53519200D03*
X221720000Y-50979200D03*
X221720000Y-48439200D03*
X221720000Y-45899200D03*
X221720000Y-43359200D03*
X221720000Y-40768400D03*
D11*
X215380000Y-44629200D03*
X212840000Y-44629200D03*
%TD*%
D28*
%TO.C,U22*%
X140760000Y-92540000D03*
X140760000Y-95080000D03*
X132260000Y-95080000D03*
X132260000Y-92540000D03*
%TD*%
%TO.C,U21*%
X140760000Y-80540000D03*
X140760000Y-83080000D03*
X132260000Y-83080000D03*
X132260000Y-80540000D03*
%TD*%
%TO.C,U20*%
X140760000Y-68540000D03*
X140760000Y-71080000D03*
X132260000Y-71080000D03*
X132260000Y-68540000D03*
%TD*%
%TO.C,R35*%
G36*
G01*
X150270000Y-93165000D02*
X150270000Y-91915000D01*
G75*
G02*
X150520000Y-91665000I250000J0D01*
G01*
X151320000Y-91665000D01*
G75*
G02*
X151570000Y-91915000I0J-250000D01*
G01*
X151570000Y-93165000D01*
G75*
G02*
X151320000Y-93415000I-250000J0D01*
G01*
X150520000Y-93415000D01*
G75*
G02*
X150270000Y-93165000I0J250000D01*
G01*
G37*
G36*
G01*
X147170000Y-93165000D02*
X147170000Y-91915000D01*
G75*
G02*
X147420000Y-91665000I250000J0D01*
G01*
X148220000Y-91665000D01*
G75*
G02*
X148470000Y-91915000I0J-250000D01*
G01*
X148470000Y-93165000D01*
G75*
G02*
X148220000Y-93415000I-250000J0D01*
G01*
X147420000Y-93415000D01*
G75*
G02*
X147170000Y-93165000I0J250000D01*
G01*
G37*
%TD*%
%TO.C,R34*%
G36*
G01*
X150270000Y-81165000D02*
X150270000Y-79915000D01*
G75*
G02*
X150520000Y-79665000I250000J0D01*
G01*
X151320000Y-79665000D01*
G75*
G02*
X151570000Y-79915000I0J-250000D01*
G01*
X151570000Y-81165000D01*
G75*
G02*
X151320000Y-81415000I-250000J0D01*
G01*
X150520000Y-81415000D01*
G75*
G02*
X150270000Y-81165000I0J250000D01*
G01*
G37*
G36*
G01*
X147170000Y-81165000D02*
X147170000Y-79915000D01*
G75*
G02*
X147420000Y-79665000I250000J0D01*
G01*
X148220000Y-79665000D01*
G75*
G02*
X148470000Y-79915000I0J-250000D01*
G01*
X148470000Y-81165000D01*
G75*
G02*
X148220000Y-81415000I-250000J0D01*
G01*
X147420000Y-81415000D01*
G75*
G02*
X147170000Y-81165000I0J250000D01*
G01*
G37*
%TD*%
%TO.C,R33*%
G36*
G01*
X150270000Y-69165000D02*
X150270000Y-67915000D01*
G75*
G02*
X150520000Y-67665000I250000J0D01*
G01*
X151320000Y-67665000D01*
G75*
G02*
X151570000Y-67915000I0J-250000D01*
G01*
X151570000Y-69165000D01*
G75*
G02*
X151320000Y-69415000I-250000J0D01*
G01*
X150520000Y-69415000D01*
G75*
G02*
X150270000Y-69165000I0J250000D01*
G01*
G37*
G36*
G01*
X147170000Y-69165000D02*
X147170000Y-67915000D01*
G75*
G02*
X147420000Y-67665000I250000J0D01*
G01*
X148220000Y-67665000D01*
G75*
G02*
X148470000Y-67915000I0J-250000D01*
G01*
X148470000Y-69165000D01*
G75*
G02*
X148220000Y-69415000I-250000J0D01*
G01*
X147420000Y-69415000D01*
G75*
G02*
X147170000Y-69165000I0J250000D01*
G01*
G37*
%TD*%
%TO.C,R31*%
G36*
G01*
X115620800Y-76105000D02*
X115620800Y-77355000D01*
G75*
G02*
X115370800Y-77605000I-250000J0D01*
G01*
X114570800Y-77605000D01*
G75*
G02*
X114320800Y-77355000I0J250000D01*
G01*
X114320800Y-76105000D01*
G75*
G02*
X114570800Y-75855000I250000J0D01*
G01*
X115370800Y-75855000D01*
G75*
G02*
X115620800Y-76105000I0J-250000D01*
G01*
G37*
G36*
G01*
X118720800Y-76105000D02*
X118720800Y-77355000D01*
G75*
G02*
X118470800Y-77605000I-250000J0D01*
G01*
X117670800Y-77605000D01*
G75*
G02*
X117420800Y-77355000I0J250000D01*
G01*
X117420800Y-76105000D01*
G75*
G02*
X117670800Y-75855000I250000J0D01*
G01*
X118470800Y-75855000D01*
G75*
G02*
X118720800Y-76105000I0J-250000D01*
G01*
G37*
%TD*%
%TO.C,R30*%
G36*
G01*
X115620800Y-71025000D02*
X115620800Y-72275000D01*
G75*
G02*
X115370800Y-72525000I-250000J0D01*
G01*
X114570800Y-72525000D01*
G75*
G02*
X114320800Y-72275000I0J250000D01*
G01*
X114320800Y-71025000D01*
G75*
G02*
X114570800Y-70775000I250000J0D01*
G01*
X115370800Y-70775000D01*
G75*
G02*
X115620800Y-71025000I0J-250000D01*
G01*
G37*
G36*
G01*
X118720800Y-71025000D02*
X118720800Y-72275000D01*
G75*
G02*
X118470800Y-72525000I-250000J0D01*
G01*
X117670800Y-72525000D01*
G75*
G02*
X117420800Y-72275000I0J250000D01*
G01*
X117420800Y-71025000D01*
G75*
G02*
X117670800Y-70775000I250000J0D01*
G01*
X118470800Y-70775000D01*
G75*
G02*
X118720800Y-71025000I0J-250000D01*
G01*
G37*
%TD*%
%TO.C,R29*%
G36*
G01*
X123240800Y-69755000D02*
X123240800Y-71005000D01*
G75*
G02*
X122990800Y-71255000I-250000J0D01*
G01*
X122190800Y-71255000D01*
G75*
G02*
X121940800Y-71005000I0J250000D01*
G01*
X121940800Y-69755000D01*
G75*
G02*
X122190800Y-69505000I250000J0D01*
G01*
X122990800Y-69505000D01*
G75*
G02*
X123240800Y-69755000I0J-250000D01*
G01*
G37*
G36*
G01*
X126340800Y-69755000D02*
X126340800Y-71005000D01*
G75*
G02*
X126090800Y-71255000I-250000J0D01*
G01*
X125290800Y-71255000D01*
G75*
G02*
X125040800Y-71005000I0J250000D01*
G01*
X125040800Y-69755000D01*
G75*
G02*
X125290800Y-69505000I250000J0D01*
G01*
X126090800Y-69505000D01*
G75*
G02*
X126340800Y-69755000I0J-250000D01*
G01*
G37*
%TD*%
D29*
%TO.C,Q9*%
X156000000Y-92540000D03*
X156000000Y-90000000D03*
D30*
X156000000Y-87460000D03*
D31*
X172660000Y-90000000D03*
%TD*%
D29*
%TO.C,Q8*%
X156000000Y-80540000D03*
X156000000Y-78000000D03*
D30*
X156000000Y-75460000D03*
D31*
X172660000Y-78000000D03*
%TD*%
D29*
%TO.C,Q7*%
X156000000Y-68540000D03*
X156000000Y-66000000D03*
D30*
X156000000Y-63460000D03*
D31*
X172660000Y-66000000D03*
%TD*%
D20*
%TO.C,FAN*%
X181000000Y-90000000D03*
D19*
X181000000Y-92540000D03*
%TD*%
D20*
%TO.C,PUMP*%
X181000000Y-78000000D03*
D19*
X181000000Y-80540000D03*
%TD*%
D20*
%TO.C,MIXER_MOT*%
X181000000Y-66000000D03*
D19*
X181000000Y-68540000D03*
%TD*%
D32*
%TO.C,D9*%
X150920000Y-87460000D03*
D33*
X140760000Y-87460000D03*
%TD*%
D32*
%TO.C,D8*%
X150920000Y-75460000D03*
D33*
X140760000Y-75460000D03*
%TD*%
D32*
%TO.C,D7*%
X150920000Y-63460000D03*
D33*
X140760000Y-63460000D03*
%TD*%
D29*
%TO.C,Q5*%
X49000000Y-99460000D03*
X49000000Y-102000000D03*
D30*
X49000000Y-104540000D03*
D31*
X32340000Y-102000000D03*
%TD*%
D29*
%TO.C,Q4*%
X49000000Y-51460000D03*
X49000000Y-54000000D03*
D30*
X49000000Y-56540000D03*
D31*
X32340000Y-54000000D03*
%TD*%
D29*
%TO.C,Q3*%
X49000000Y-63460000D03*
X49000000Y-66000000D03*
D30*
X49000000Y-68540000D03*
D31*
X32340000Y-66000000D03*
%TD*%
D29*
%TO.C,Q2*%
X49000000Y-75460000D03*
X49000000Y-78000000D03*
D30*
X49000000Y-80540000D03*
D31*
X32340000Y-78000000D03*
%TD*%
%TO.C,R28*%
G36*
G01*
X171725000Y-35900000D02*
X172975000Y-35900000D01*
G75*
G02*
X173225000Y-36150000I0J-250000D01*
G01*
X173225000Y-36950000D01*
G75*
G02*
X172975000Y-37200000I-250000J0D01*
G01*
X171725000Y-37200000D01*
G75*
G02*
X171475000Y-36950000I0J250000D01*
G01*
X171475000Y-36150000D01*
G75*
G02*
X171725000Y-35900000I250000J0D01*
G01*
G37*
G36*
G01*
X171725000Y-32800000D02*
X172975000Y-32800000D01*
G75*
G02*
X173225000Y-33050000I0J-250000D01*
G01*
X173225000Y-33850000D01*
G75*
G02*
X172975000Y-34100000I-250000J0D01*
G01*
X171725000Y-34100000D01*
G75*
G02*
X171475000Y-33850000I0J250000D01*
G01*
X171475000Y-33050000D01*
G75*
G02*
X171725000Y-32800000I250000J0D01*
G01*
G37*
%TD*%
%TO.C,R27*%
G36*
G01*
X150725000Y-35900000D02*
X151975000Y-35900000D01*
G75*
G02*
X152225000Y-36150000I0J-250000D01*
G01*
X152225000Y-36950000D01*
G75*
G02*
X151975000Y-37200000I-250000J0D01*
G01*
X150725000Y-37200000D01*
G75*
G02*
X150475000Y-36950000I0J250000D01*
G01*
X150475000Y-36150000D01*
G75*
G02*
X150725000Y-35900000I250000J0D01*
G01*
G37*
G36*
G01*
X150725000Y-32800000D02*
X151975000Y-32800000D01*
G75*
G02*
X152225000Y-33050000I0J-250000D01*
G01*
X152225000Y-33850000D01*
G75*
G02*
X151975000Y-34100000I-250000J0D01*
G01*
X150725000Y-34100000D01*
G75*
G02*
X150475000Y-33850000I0J250000D01*
G01*
X150475000Y-33050000D01*
G75*
G02*
X150725000Y-32800000I250000J0D01*
G01*
G37*
%TD*%
%TO.C,R26*%
G36*
G01*
X129725000Y-35900000D02*
X130975000Y-35900000D01*
G75*
G02*
X131225000Y-36150000I0J-250000D01*
G01*
X131225000Y-36950000D01*
G75*
G02*
X130975000Y-37200000I-250000J0D01*
G01*
X129725000Y-37200000D01*
G75*
G02*
X129475000Y-36950000I0J250000D01*
G01*
X129475000Y-36150000D01*
G75*
G02*
X129725000Y-35900000I250000J0D01*
G01*
G37*
G36*
G01*
X129725000Y-32800000D02*
X130975000Y-32800000D01*
G75*
G02*
X131225000Y-33050000I0J-250000D01*
G01*
X131225000Y-33850000D01*
G75*
G02*
X130975000Y-34100000I-250000J0D01*
G01*
X129725000Y-34100000D01*
G75*
G02*
X129475000Y-33850000I0J250000D01*
G01*
X129475000Y-33050000D01*
G75*
G02*
X129725000Y-32800000I250000J0D01*
G01*
G37*
%TD*%
%TO.C,R25*%
G36*
G01*
X108725000Y-35900000D02*
X109975000Y-35900000D01*
G75*
G02*
X110225000Y-36150000I0J-250000D01*
G01*
X110225000Y-36950000D01*
G75*
G02*
X109975000Y-37200000I-250000J0D01*
G01*
X108725000Y-37200000D01*
G75*
G02*
X108475000Y-36950000I0J250000D01*
G01*
X108475000Y-36150000D01*
G75*
G02*
X108725000Y-35900000I250000J0D01*
G01*
G37*
G36*
G01*
X108725000Y-32800000D02*
X109975000Y-32800000D01*
G75*
G02*
X110225000Y-33050000I0J-250000D01*
G01*
X110225000Y-33850000D01*
G75*
G02*
X109975000Y-34100000I-250000J0D01*
G01*
X108725000Y-34100000D01*
G75*
G02*
X108475000Y-33850000I0J250000D01*
G01*
X108475000Y-33050000D01*
G75*
G02*
X108725000Y-32800000I250000J0D01*
G01*
G37*
%TD*%
%TO.C,R24*%
G36*
G01*
X87725000Y-35900000D02*
X88975000Y-35900000D01*
G75*
G02*
X89225000Y-36150000I0J-250000D01*
G01*
X89225000Y-36950000D01*
G75*
G02*
X88975000Y-37200000I-250000J0D01*
G01*
X87725000Y-37200000D01*
G75*
G02*
X87475000Y-36950000I0J250000D01*
G01*
X87475000Y-36150000D01*
G75*
G02*
X87725000Y-35900000I250000J0D01*
G01*
G37*
G36*
G01*
X87725000Y-32800000D02*
X88975000Y-32800000D01*
G75*
G02*
X89225000Y-33050000I0J-250000D01*
G01*
X89225000Y-33850000D01*
G75*
G02*
X88975000Y-34100000I-250000J0D01*
G01*
X87725000Y-34100000D01*
G75*
G02*
X87475000Y-33850000I0J250000D01*
G01*
X87475000Y-33050000D01*
G75*
G02*
X87725000Y-32800000I250000J0D01*
G01*
G37*
%TD*%
%TO.C,R23*%
G36*
G01*
X174265000Y-35900000D02*
X175515000Y-35900000D01*
G75*
G02*
X175765000Y-36150000I0J-250000D01*
G01*
X175765000Y-36950000D01*
G75*
G02*
X175515000Y-37200000I-250000J0D01*
G01*
X174265000Y-37200000D01*
G75*
G02*
X174015000Y-36950000I0J250000D01*
G01*
X174015000Y-36150000D01*
G75*
G02*
X174265000Y-35900000I250000J0D01*
G01*
G37*
G36*
G01*
X174265000Y-32800000D02*
X175515000Y-32800000D01*
G75*
G02*
X175765000Y-33050000I0J-250000D01*
G01*
X175765000Y-33850000D01*
G75*
G02*
X175515000Y-34100000I-250000J0D01*
G01*
X174265000Y-34100000D01*
G75*
G02*
X174015000Y-33850000I0J250000D01*
G01*
X174015000Y-33050000D01*
G75*
G02*
X174265000Y-32800000I250000J0D01*
G01*
G37*
%TD*%
%TO.C,R22*%
G36*
G01*
X153265000Y-35900000D02*
X154515000Y-35900000D01*
G75*
G02*
X154765000Y-36150000I0J-250000D01*
G01*
X154765000Y-36950000D01*
G75*
G02*
X154515000Y-37200000I-250000J0D01*
G01*
X153265000Y-37200000D01*
G75*
G02*
X153015000Y-36950000I0J250000D01*
G01*
X153015000Y-36150000D01*
G75*
G02*
X153265000Y-35900000I250000J0D01*
G01*
G37*
G36*
G01*
X153265000Y-32800000D02*
X154515000Y-32800000D01*
G75*
G02*
X154765000Y-33050000I0J-250000D01*
G01*
X154765000Y-33850000D01*
G75*
G02*
X154515000Y-34100000I-250000J0D01*
G01*
X153265000Y-34100000D01*
G75*
G02*
X153015000Y-33850000I0J250000D01*
G01*
X153015000Y-33050000D01*
G75*
G02*
X153265000Y-32800000I250000J0D01*
G01*
G37*
%TD*%
%TO.C,R21*%
G36*
G01*
X132265000Y-32800000D02*
X133515000Y-32800000D01*
G75*
G02*
X133765000Y-33050000I0J-250000D01*
G01*
X133765000Y-33850000D01*
G75*
G02*
X133515000Y-34100000I-250000J0D01*
G01*
X132265000Y-34100000D01*
G75*
G02*
X132015000Y-33850000I0J250000D01*
G01*
X132015000Y-33050000D01*
G75*
G02*
X132265000Y-32800000I250000J0D01*
G01*
G37*
G36*
G01*
X132265000Y-35900000D02*
X133515000Y-35900000D01*
G75*
G02*
X133765000Y-36150000I0J-250000D01*
G01*
X133765000Y-36950000D01*
G75*
G02*
X133515000Y-37200000I-250000J0D01*
G01*
X132265000Y-37200000D01*
G75*
G02*
X132015000Y-36950000I0J250000D01*
G01*
X132015000Y-36150000D01*
G75*
G02*
X132265000Y-35900000I250000J0D01*
G01*
G37*
%TD*%
%TO.C,R20*%
G36*
G01*
X111265000Y-35900000D02*
X112515000Y-35900000D01*
G75*
G02*
X112765000Y-36150000I0J-250000D01*
G01*
X112765000Y-36950000D01*
G75*
G02*
X112515000Y-37200000I-250000J0D01*
G01*
X111265000Y-37200000D01*
G75*
G02*
X111015000Y-36950000I0J250000D01*
G01*
X111015000Y-36150000D01*
G75*
G02*
X111265000Y-35900000I250000J0D01*
G01*
G37*
G36*
G01*
X111265000Y-32800000D02*
X112515000Y-32800000D01*
G75*
G02*
X112765000Y-33050000I0J-250000D01*
G01*
X112765000Y-33850000D01*
G75*
G02*
X112515000Y-34100000I-250000J0D01*
G01*
X111265000Y-34100000D01*
G75*
G02*
X111015000Y-33850000I0J250000D01*
G01*
X111015000Y-33050000D01*
G75*
G02*
X111265000Y-32800000I250000J0D01*
G01*
G37*
%TD*%
%TO.C,R19*%
G36*
G01*
X90265000Y-35900000D02*
X91515000Y-35900000D01*
G75*
G02*
X91765000Y-36150000I0J-250000D01*
G01*
X91765000Y-36950000D01*
G75*
G02*
X91515000Y-37200000I-250000J0D01*
G01*
X90265000Y-37200000D01*
G75*
G02*
X90015000Y-36950000I0J250000D01*
G01*
X90015000Y-36150000D01*
G75*
G02*
X90265000Y-35900000I250000J0D01*
G01*
G37*
G36*
G01*
X90265000Y-32800000D02*
X91515000Y-32800000D01*
G75*
G02*
X91765000Y-33050000I0J-250000D01*
G01*
X91765000Y-33850000D01*
G75*
G02*
X91515000Y-34100000I-250000J0D01*
G01*
X90265000Y-34100000D01*
G75*
G02*
X90015000Y-33850000I0J250000D01*
G01*
X90015000Y-33050000D01*
G75*
G02*
X90265000Y-32800000I250000J0D01*
G01*
G37*
%TD*%
D34*
%TO.C,JP21*%
G36*
X170559398Y-35650000D02*
G01*
X170559398Y-35674534D01*
X170554588Y-35723365D01*
X170545016Y-35771490D01*
X170530772Y-35818445D01*
X170511995Y-35863778D01*
X170488864Y-35907051D01*
X170461604Y-35947850D01*
X170430476Y-35985779D01*
X170395779Y-36020476D01*
X170357850Y-36051604D01*
X170317051Y-36078864D01*
X170273778Y-36101995D01*
X170228445Y-36120772D01*
X170181490Y-36135016D01*
X170133365Y-36144588D01*
X170084534Y-36149398D01*
X170060000Y-36149398D01*
X170060000Y-36150000D01*
X169560000Y-36150000D01*
X169560000Y-36149398D01*
X169535466Y-36149398D01*
X169486635Y-36144588D01*
X169438510Y-36135016D01*
X169391555Y-36120772D01*
X169346222Y-36101995D01*
X169302949Y-36078864D01*
X169262150Y-36051604D01*
X169224221Y-36020476D01*
X169189524Y-35985779D01*
X169158396Y-35947850D01*
X169131136Y-35907051D01*
X169108005Y-35863778D01*
X169089228Y-35818445D01*
X169074984Y-35771490D01*
X169065412Y-35723365D01*
X169060602Y-35674534D01*
X169060602Y-35650000D01*
X169060000Y-35650000D01*
X169060000Y-35150000D01*
X170560000Y-35150000D01*
X170560000Y-35650000D01*
X170559398Y-35650000D01*
G37*
G36*
X169060000Y-34850000D02*
G01*
X169060000Y-34350000D01*
X169060602Y-34350000D01*
X169060602Y-34325466D01*
X169065412Y-34276635D01*
X169074984Y-34228510D01*
X169089228Y-34181555D01*
X169108005Y-34136222D01*
X169131136Y-34092949D01*
X169158396Y-34052150D01*
X169189524Y-34014221D01*
X169224221Y-33979524D01*
X169262150Y-33948396D01*
X169302949Y-33921136D01*
X169346222Y-33898005D01*
X169391555Y-33879228D01*
X169438510Y-33864984D01*
X169486635Y-33855412D01*
X169535466Y-33850602D01*
X169560000Y-33850602D01*
X169560000Y-33850000D01*
X170060000Y-33850000D01*
X170060000Y-33850602D01*
X170084534Y-33850602D01*
X170133365Y-33855412D01*
X170181490Y-33864984D01*
X170228445Y-33879228D01*
X170273778Y-33898005D01*
X170317051Y-33921136D01*
X170357850Y-33948396D01*
X170395779Y-33979524D01*
X170430476Y-34014221D01*
X170461604Y-34052150D01*
X170488864Y-34092949D01*
X170511995Y-34136222D01*
X170530772Y-34181555D01*
X170545016Y-34228510D01*
X170554588Y-34276635D01*
X170559398Y-34325466D01*
X170559398Y-34350000D01*
X170560000Y-34350000D01*
X170560000Y-34850000D01*
X169060000Y-34850000D01*
G37*
%TD*%
%TO.C,JP20*%
G36*
X168019398Y-35650000D02*
G01*
X168019398Y-35674534D01*
X168014588Y-35723365D01*
X168005016Y-35771490D01*
X167990772Y-35818445D01*
X167971995Y-35863778D01*
X167948864Y-35907051D01*
X167921604Y-35947850D01*
X167890476Y-35985779D01*
X167855779Y-36020476D01*
X167817850Y-36051604D01*
X167777051Y-36078864D01*
X167733778Y-36101995D01*
X167688445Y-36120772D01*
X167641490Y-36135016D01*
X167593365Y-36144588D01*
X167544534Y-36149398D01*
X167520000Y-36149398D01*
X167520000Y-36150000D01*
X167020000Y-36150000D01*
X167020000Y-36149398D01*
X166995466Y-36149398D01*
X166946635Y-36144588D01*
X166898510Y-36135016D01*
X166851555Y-36120772D01*
X166806222Y-36101995D01*
X166762949Y-36078864D01*
X166722150Y-36051604D01*
X166684221Y-36020476D01*
X166649524Y-35985779D01*
X166618396Y-35947850D01*
X166591136Y-35907051D01*
X166568005Y-35863778D01*
X166549228Y-35818445D01*
X166534984Y-35771490D01*
X166525412Y-35723365D01*
X166520602Y-35674534D01*
X166520602Y-35650000D01*
X166520000Y-35650000D01*
X166520000Y-35150000D01*
X168020000Y-35150000D01*
X168020000Y-35650000D01*
X168019398Y-35650000D01*
G37*
G36*
X166520000Y-34850000D02*
G01*
X166520000Y-34350000D01*
X166520602Y-34350000D01*
X166520602Y-34325466D01*
X166525412Y-34276635D01*
X166534984Y-34228510D01*
X166549228Y-34181555D01*
X166568005Y-34136222D01*
X166591136Y-34092949D01*
X166618396Y-34052150D01*
X166649524Y-34014221D01*
X166684221Y-33979524D01*
X166722150Y-33948396D01*
X166762949Y-33921136D01*
X166806222Y-33898005D01*
X166851555Y-33879228D01*
X166898510Y-33864984D01*
X166946635Y-33855412D01*
X166995466Y-33850602D01*
X167020000Y-33850602D01*
X167020000Y-33850000D01*
X167520000Y-33850000D01*
X167520000Y-33850602D01*
X167544534Y-33850602D01*
X167593365Y-33855412D01*
X167641490Y-33864984D01*
X167688445Y-33879228D01*
X167733778Y-33898005D01*
X167777051Y-33921136D01*
X167817850Y-33948396D01*
X167855779Y-33979524D01*
X167890476Y-34014221D01*
X167921604Y-34052150D01*
X167948864Y-34092949D01*
X167971995Y-34136222D01*
X167990772Y-34181555D01*
X168005016Y-34228510D01*
X168014588Y-34276635D01*
X168019398Y-34325466D01*
X168019398Y-34350000D01*
X168020000Y-34350000D01*
X168020000Y-34850000D01*
X166520000Y-34850000D01*
G37*
%TD*%
%TO.C,JP19*%
G36*
X165479398Y-35650000D02*
G01*
X165479398Y-35674534D01*
X165474588Y-35723365D01*
X165465016Y-35771490D01*
X165450772Y-35818445D01*
X165431995Y-35863778D01*
X165408864Y-35907051D01*
X165381604Y-35947850D01*
X165350476Y-35985779D01*
X165315779Y-36020476D01*
X165277850Y-36051604D01*
X165237051Y-36078864D01*
X165193778Y-36101995D01*
X165148445Y-36120772D01*
X165101490Y-36135016D01*
X165053365Y-36144588D01*
X165004534Y-36149398D01*
X164980000Y-36149398D01*
X164980000Y-36150000D01*
X164480000Y-36150000D01*
X164480000Y-36149398D01*
X164455466Y-36149398D01*
X164406635Y-36144588D01*
X164358510Y-36135016D01*
X164311555Y-36120772D01*
X164266222Y-36101995D01*
X164222949Y-36078864D01*
X164182150Y-36051604D01*
X164144221Y-36020476D01*
X164109524Y-35985779D01*
X164078396Y-35947850D01*
X164051136Y-35907051D01*
X164028005Y-35863778D01*
X164009228Y-35818445D01*
X163994984Y-35771490D01*
X163985412Y-35723365D01*
X163980602Y-35674534D01*
X163980602Y-35650000D01*
X163980000Y-35650000D01*
X163980000Y-35150000D01*
X165480000Y-35150000D01*
X165480000Y-35650000D01*
X165479398Y-35650000D01*
G37*
G36*
X163980000Y-34850000D02*
G01*
X163980000Y-34350000D01*
X163980602Y-34350000D01*
X163980602Y-34325466D01*
X163985412Y-34276635D01*
X163994984Y-34228510D01*
X164009228Y-34181555D01*
X164028005Y-34136222D01*
X164051136Y-34092949D01*
X164078396Y-34052150D01*
X164109524Y-34014221D01*
X164144221Y-33979524D01*
X164182150Y-33948396D01*
X164222949Y-33921136D01*
X164266222Y-33898005D01*
X164311555Y-33879228D01*
X164358510Y-33864984D01*
X164406635Y-33855412D01*
X164455466Y-33850602D01*
X164480000Y-33850602D01*
X164480000Y-33850000D01*
X164980000Y-33850000D01*
X164980000Y-33850602D01*
X165004534Y-33850602D01*
X165053365Y-33855412D01*
X165101490Y-33864984D01*
X165148445Y-33879228D01*
X165193778Y-33898005D01*
X165237051Y-33921136D01*
X165277850Y-33948396D01*
X165315779Y-33979524D01*
X165350476Y-34014221D01*
X165381604Y-34052150D01*
X165408864Y-34092949D01*
X165431995Y-34136222D01*
X165450772Y-34181555D01*
X165465016Y-34228510D01*
X165474588Y-34276635D01*
X165479398Y-34325466D01*
X165479398Y-34350000D01*
X165480000Y-34350000D01*
X165480000Y-34850000D01*
X163980000Y-34850000D01*
G37*
%TD*%
%TO.C,JP18*%
G36*
X149559398Y-35650000D02*
G01*
X149559398Y-35674534D01*
X149554588Y-35723365D01*
X149545016Y-35771490D01*
X149530772Y-35818445D01*
X149511995Y-35863778D01*
X149488864Y-35907051D01*
X149461604Y-35947850D01*
X149430476Y-35985779D01*
X149395779Y-36020476D01*
X149357850Y-36051604D01*
X149317051Y-36078864D01*
X149273778Y-36101995D01*
X149228445Y-36120772D01*
X149181490Y-36135016D01*
X149133365Y-36144588D01*
X149084534Y-36149398D01*
X149060000Y-36149398D01*
X149060000Y-36150000D01*
X148560000Y-36150000D01*
X148560000Y-36149398D01*
X148535466Y-36149398D01*
X148486635Y-36144588D01*
X148438510Y-36135016D01*
X148391555Y-36120772D01*
X148346222Y-36101995D01*
X148302949Y-36078864D01*
X148262150Y-36051604D01*
X148224221Y-36020476D01*
X148189524Y-35985779D01*
X148158396Y-35947850D01*
X148131136Y-35907051D01*
X148108005Y-35863778D01*
X148089228Y-35818445D01*
X148074984Y-35771490D01*
X148065412Y-35723365D01*
X148060602Y-35674534D01*
X148060602Y-35650000D01*
X148060000Y-35650000D01*
X148060000Y-35150000D01*
X149560000Y-35150000D01*
X149560000Y-35650000D01*
X149559398Y-35650000D01*
G37*
G36*
X148060000Y-34850000D02*
G01*
X148060000Y-34350000D01*
X148060602Y-34350000D01*
X148060602Y-34325466D01*
X148065412Y-34276635D01*
X148074984Y-34228510D01*
X148089228Y-34181555D01*
X148108005Y-34136222D01*
X148131136Y-34092949D01*
X148158396Y-34052150D01*
X148189524Y-34014221D01*
X148224221Y-33979524D01*
X148262150Y-33948396D01*
X148302949Y-33921136D01*
X148346222Y-33898005D01*
X148391555Y-33879228D01*
X148438510Y-33864984D01*
X148486635Y-33855412D01*
X148535466Y-33850602D01*
X148560000Y-33850602D01*
X148560000Y-33850000D01*
X149060000Y-33850000D01*
X149060000Y-33850602D01*
X149084534Y-33850602D01*
X149133365Y-33855412D01*
X149181490Y-33864984D01*
X149228445Y-33879228D01*
X149273778Y-33898005D01*
X149317051Y-33921136D01*
X149357850Y-33948396D01*
X149395779Y-33979524D01*
X149430476Y-34014221D01*
X149461604Y-34052150D01*
X149488864Y-34092949D01*
X149511995Y-34136222D01*
X149530772Y-34181555D01*
X149545016Y-34228510D01*
X149554588Y-34276635D01*
X149559398Y-34325466D01*
X149559398Y-34350000D01*
X149560000Y-34350000D01*
X149560000Y-34850000D01*
X148060000Y-34850000D01*
G37*
%TD*%
%TO.C,JP17*%
G36*
X147019398Y-35650000D02*
G01*
X147019398Y-35674534D01*
X147014588Y-35723365D01*
X147005016Y-35771490D01*
X146990772Y-35818445D01*
X146971995Y-35863778D01*
X146948864Y-35907051D01*
X146921604Y-35947850D01*
X146890476Y-35985779D01*
X146855779Y-36020476D01*
X146817850Y-36051604D01*
X146777051Y-36078864D01*
X146733778Y-36101995D01*
X146688445Y-36120772D01*
X146641490Y-36135016D01*
X146593365Y-36144588D01*
X146544534Y-36149398D01*
X146520000Y-36149398D01*
X146520000Y-36150000D01*
X146020000Y-36150000D01*
X146020000Y-36149398D01*
X145995466Y-36149398D01*
X145946635Y-36144588D01*
X145898510Y-36135016D01*
X145851555Y-36120772D01*
X145806222Y-36101995D01*
X145762949Y-36078864D01*
X145722150Y-36051604D01*
X145684221Y-36020476D01*
X145649524Y-35985779D01*
X145618396Y-35947850D01*
X145591136Y-35907051D01*
X145568005Y-35863778D01*
X145549228Y-35818445D01*
X145534984Y-35771490D01*
X145525412Y-35723365D01*
X145520602Y-35674534D01*
X145520602Y-35650000D01*
X145520000Y-35650000D01*
X145520000Y-35150000D01*
X147020000Y-35150000D01*
X147020000Y-35650000D01*
X147019398Y-35650000D01*
G37*
G36*
X145520000Y-34850000D02*
G01*
X145520000Y-34350000D01*
X145520602Y-34350000D01*
X145520602Y-34325466D01*
X145525412Y-34276635D01*
X145534984Y-34228510D01*
X145549228Y-34181555D01*
X145568005Y-34136222D01*
X145591136Y-34092949D01*
X145618396Y-34052150D01*
X145649524Y-34014221D01*
X145684221Y-33979524D01*
X145722150Y-33948396D01*
X145762949Y-33921136D01*
X145806222Y-33898005D01*
X145851555Y-33879228D01*
X145898510Y-33864984D01*
X145946635Y-33855412D01*
X145995466Y-33850602D01*
X146020000Y-33850602D01*
X146020000Y-33850000D01*
X146520000Y-33850000D01*
X146520000Y-33850602D01*
X146544534Y-33850602D01*
X146593365Y-33855412D01*
X146641490Y-33864984D01*
X146688445Y-33879228D01*
X146733778Y-33898005D01*
X146777051Y-33921136D01*
X146817850Y-33948396D01*
X146855779Y-33979524D01*
X146890476Y-34014221D01*
X146921604Y-34052150D01*
X146948864Y-34092949D01*
X146971995Y-34136222D01*
X146990772Y-34181555D01*
X147005016Y-34228510D01*
X147014588Y-34276635D01*
X147019398Y-34325466D01*
X147019398Y-34350000D01*
X147020000Y-34350000D01*
X147020000Y-34850000D01*
X145520000Y-34850000D01*
G37*
%TD*%
%TO.C,JP16*%
G36*
X144479398Y-35650000D02*
G01*
X144479398Y-35674534D01*
X144474588Y-35723365D01*
X144465016Y-35771490D01*
X144450772Y-35818445D01*
X144431995Y-35863778D01*
X144408864Y-35907051D01*
X144381604Y-35947850D01*
X144350476Y-35985779D01*
X144315779Y-36020476D01*
X144277850Y-36051604D01*
X144237051Y-36078864D01*
X144193778Y-36101995D01*
X144148445Y-36120772D01*
X144101490Y-36135016D01*
X144053365Y-36144588D01*
X144004534Y-36149398D01*
X143980000Y-36149398D01*
X143980000Y-36150000D01*
X143480000Y-36150000D01*
X143480000Y-36149398D01*
X143455466Y-36149398D01*
X143406635Y-36144588D01*
X143358510Y-36135016D01*
X143311555Y-36120772D01*
X143266222Y-36101995D01*
X143222949Y-36078864D01*
X143182150Y-36051604D01*
X143144221Y-36020476D01*
X143109524Y-35985779D01*
X143078396Y-35947850D01*
X143051136Y-35907051D01*
X143028005Y-35863778D01*
X143009228Y-35818445D01*
X142994984Y-35771490D01*
X142985412Y-35723365D01*
X142980602Y-35674534D01*
X142980602Y-35650000D01*
X142980000Y-35650000D01*
X142980000Y-35150000D01*
X144480000Y-35150000D01*
X144480000Y-35650000D01*
X144479398Y-35650000D01*
G37*
G36*
X142980000Y-34850000D02*
G01*
X142980000Y-34350000D01*
X142980602Y-34350000D01*
X142980602Y-34325466D01*
X142985412Y-34276635D01*
X142994984Y-34228510D01*
X143009228Y-34181555D01*
X143028005Y-34136222D01*
X143051136Y-34092949D01*
X143078396Y-34052150D01*
X143109524Y-34014221D01*
X143144221Y-33979524D01*
X143182150Y-33948396D01*
X143222949Y-33921136D01*
X143266222Y-33898005D01*
X143311555Y-33879228D01*
X143358510Y-33864984D01*
X143406635Y-33855412D01*
X143455466Y-33850602D01*
X143480000Y-33850602D01*
X143480000Y-33850000D01*
X143980000Y-33850000D01*
X143980000Y-33850602D01*
X144004534Y-33850602D01*
X144053365Y-33855412D01*
X144101490Y-33864984D01*
X144148445Y-33879228D01*
X144193778Y-33898005D01*
X144237051Y-33921136D01*
X144277850Y-33948396D01*
X144315779Y-33979524D01*
X144350476Y-34014221D01*
X144381604Y-34052150D01*
X144408864Y-34092949D01*
X144431995Y-34136222D01*
X144450772Y-34181555D01*
X144465016Y-34228510D01*
X144474588Y-34276635D01*
X144479398Y-34325466D01*
X144479398Y-34350000D01*
X144480000Y-34350000D01*
X144480000Y-34850000D01*
X142980000Y-34850000D01*
G37*
%TD*%
%TO.C,JP15*%
G36*
X128559398Y-35650000D02*
G01*
X128559398Y-35674534D01*
X128554588Y-35723365D01*
X128545016Y-35771490D01*
X128530772Y-35818445D01*
X128511995Y-35863778D01*
X128488864Y-35907051D01*
X128461604Y-35947850D01*
X128430476Y-35985779D01*
X128395779Y-36020476D01*
X128357850Y-36051604D01*
X128317051Y-36078864D01*
X128273778Y-36101995D01*
X128228445Y-36120772D01*
X128181490Y-36135016D01*
X128133365Y-36144588D01*
X128084534Y-36149398D01*
X128060000Y-36149398D01*
X128060000Y-36150000D01*
X127560000Y-36150000D01*
X127560000Y-36149398D01*
X127535466Y-36149398D01*
X127486635Y-36144588D01*
X127438510Y-36135016D01*
X127391555Y-36120772D01*
X127346222Y-36101995D01*
X127302949Y-36078864D01*
X127262150Y-36051604D01*
X127224221Y-36020476D01*
X127189524Y-35985779D01*
X127158396Y-35947850D01*
X127131136Y-35907051D01*
X127108005Y-35863778D01*
X127089228Y-35818445D01*
X127074984Y-35771490D01*
X127065412Y-35723365D01*
X127060602Y-35674534D01*
X127060602Y-35650000D01*
X127060000Y-35650000D01*
X127060000Y-35150000D01*
X128560000Y-35150000D01*
X128560000Y-35650000D01*
X128559398Y-35650000D01*
G37*
G36*
X127060000Y-34850000D02*
G01*
X127060000Y-34350000D01*
X127060602Y-34350000D01*
X127060602Y-34325466D01*
X127065412Y-34276635D01*
X127074984Y-34228510D01*
X127089228Y-34181555D01*
X127108005Y-34136222D01*
X127131136Y-34092949D01*
X127158396Y-34052150D01*
X127189524Y-34014221D01*
X127224221Y-33979524D01*
X127262150Y-33948396D01*
X127302949Y-33921136D01*
X127346222Y-33898005D01*
X127391555Y-33879228D01*
X127438510Y-33864984D01*
X127486635Y-33855412D01*
X127535466Y-33850602D01*
X127560000Y-33850602D01*
X127560000Y-33850000D01*
X128060000Y-33850000D01*
X128060000Y-33850602D01*
X128084534Y-33850602D01*
X128133365Y-33855412D01*
X128181490Y-33864984D01*
X128228445Y-33879228D01*
X128273778Y-33898005D01*
X128317051Y-33921136D01*
X128357850Y-33948396D01*
X128395779Y-33979524D01*
X128430476Y-34014221D01*
X128461604Y-34052150D01*
X128488864Y-34092949D01*
X128511995Y-34136222D01*
X128530772Y-34181555D01*
X128545016Y-34228510D01*
X128554588Y-34276635D01*
X128559398Y-34325466D01*
X128559398Y-34350000D01*
X128560000Y-34350000D01*
X128560000Y-34850000D01*
X127060000Y-34850000D01*
G37*
%TD*%
%TO.C,JP14*%
G36*
X126019398Y-35650000D02*
G01*
X126019398Y-35674534D01*
X126014588Y-35723365D01*
X126005016Y-35771490D01*
X125990772Y-35818445D01*
X125971995Y-35863778D01*
X125948864Y-35907051D01*
X125921604Y-35947850D01*
X125890476Y-35985779D01*
X125855779Y-36020476D01*
X125817850Y-36051604D01*
X125777051Y-36078864D01*
X125733778Y-36101995D01*
X125688445Y-36120772D01*
X125641490Y-36135016D01*
X125593365Y-36144588D01*
X125544534Y-36149398D01*
X125520000Y-36149398D01*
X125520000Y-36150000D01*
X125020000Y-36150000D01*
X125020000Y-36149398D01*
X124995466Y-36149398D01*
X124946635Y-36144588D01*
X124898510Y-36135016D01*
X124851555Y-36120772D01*
X124806222Y-36101995D01*
X124762949Y-36078864D01*
X124722150Y-36051604D01*
X124684221Y-36020476D01*
X124649524Y-35985779D01*
X124618396Y-35947850D01*
X124591136Y-35907051D01*
X124568005Y-35863778D01*
X124549228Y-35818445D01*
X124534984Y-35771490D01*
X124525412Y-35723365D01*
X124520602Y-35674534D01*
X124520602Y-35650000D01*
X124520000Y-35650000D01*
X124520000Y-35150000D01*
X126020000Y-35150000D01*
X126020000Y-35650000D01*
X126019398Y-35650000D01*
G37*
G36*
X124520000Y-34850000D02*
G01*
X124520000Y-34350000D01*
X124520602Y-34350000D01*
X124520602Y-34325466D01*
X124525412Y-34276635D01*
X124534984Y-34228510D01*
X124549228Y-34181555D01*
X124568005Y-34136222D01*
X124591136Y-34092949D01*
X124618396Y-34052150D01*
X124649524Y-34014221D01*
X124684221Y-33979524D01*
X124722150Y-33948396D01*
X124762949Y-33921136D01*
X124806222Y-33898005D01*
X124851555Y-33879228D01*
X124898510Y-33864984D01*
X124946635Y-33855412D01*
X124995466Y-33850602D01*
X125020000Y-33850602D01*
X125020000Y-33850000D01*
X125520000Y-33850000D01*
X125520000Y-33850602D01*
X125544534Y-33850602D01*
X125593365Y-33855412D01*
X125641490Y-33864984D01*
X125688445Y-33879228D01*
X125733778Y-33898005D01*
X125777051Y-33921136D01*
X125817850Y-33948396D01*
X125855779Y-33979524D01*
X125890476Y-34014221D01*
X125921604Y-34052150D01*
X125948864Y-34092949D01*
X125971995Y-34136222D01*
X125990772Y-34181555D01*
X126005016Y-34228510D01*
X126014588Y-34276635D01*
X126019398Y-34325466D01*
X126019398Y-34350000D01*
X126020000Y-34350000D01*
X126020000Y-34850000D01*
X124520000Y-34850000D01*
G37*
%TD*%
%TO.C,JP13*%
G36*
X123479398Y-35650000D02*
G01*
X123479398Y-35674534D01*
X123474588Y-35723365D01*
X123465016Y-35771490D01*
X123450772Y-35818445D01*
X123431995Y-35863778D01*
X123408864Y-35907051D01*
X123381604Y-35947850D01*
X123350476Y-35985779D01*
X123315779Y-36020476D01*
X123277850Y-36051604D01*
X123237051Y-36078864D01*
X123193778Y-36101995D01*
X123148445Y-36120772D01*
X123101490Y-36135016D01*
X123053365Y-36144588D01*
X123004534Y-36149398D01*
X122980000Y-36149398D01*
X122980000Y-36150000D01*
X122480000Y-36150000D01*
X122480000Y-36149398D01*
X122455466Y-36149398D01*
X122406635Y-36144588D01*
X122358510Y-36135016D01*
X122311555Y-36120772D01*
X122266222Y-36101995D01*
X122222949Y-36078864D01*
X122182150Y-36051604D01*
X122144221Y-36020476D01*
X122109524Y-35985779D01*
X122078396Y-35947850D01*
X122051136Y-35907051D01*
X122028005Y-35863778D01*
X122009228Y-35818445D01*
X121994984Y-35771490D01*
X121985412Y-35723365D01*
X121980602Y-35674534D01*
X121980602Y-35650000D01*
X121980000Y-35650000D01*
X121980000Y-35150000D01*
X123480000Y-35150000D01*
X123480000Y-35650000D01*
X123479398Y-35650000D01*
G37*
G36*
X121980000Y-34850000D02*
G01*
X121980000Y-34350000D01*
X121980602Y-34350000D01*
X121980602Y-34325466D01*
X121985412Y-34276635D01*
X121994984Y-34228510D01*
X122009228Y-34181555D01*
X122028005Y-34136222D01*
X122051136Y-34092949D01*
X122078396Y-34052150D01*
X122109524Y-34014221D01*
X122144221Y-33979524D01*
X122182150Y-33948396D01*
X122222949Y-33921136D01*
X122266222Y-33898005D01*
X122311555Y-33879228D01*
X122358510Y-33864984D01*
X122406635Y-33855412D01*
X122455466Y-33850602D01*
X122480000Y-33850602D01*
X122480000Y-33850000D01*
X122980000Y-33850000D01*
X122980000Y-33850602D01*
X123004534Y-33850602D01*
X123053365Y-33855412D01*
X123101490Y-33864984D01*
X123148445Y-33879228D01*
X123193778Y-33898005D01*
X123237051Y-33921136D01*
X123277850Y-33948396D01*
X123315779Y-33979524D01*
X123350476Y-34014221D01*
X123381604Y-34052150D01*
X123408864Y-34092949D01*
X123431995Y-34136222D01*
X123450772Y-34181555D01*
X123465016Y-34228510D01*
X123474588Y-34276635D01*
X123479398Y-34325466D01*
X123479398Y-34350000D01*
X123480000Y-34350000D01*
X123480000Y-34850000D01*
X121980000Y-34850000D01*
G37*
%TD*%
%TO.C,JP12*%
G36*
X107559398Y-35650000D02*
G01*
X107559398Y-35674534D01*
X107554588Y-35723365D01*
X107545016Y-35771490D01*
X107530772Y-35818445D01*
X107511995Y-35863778D01*
X107488864Y-35907051D01*
X107461604Y-35947850D01*
X107430476Y-35985779D01*
X107395779Y-36020476D01*
X107357850Y-36051604D01*
X107317051Y-36078864D01*
X107273778Y-36101995D01*
X107228445Y-36120772D01*
X107181490Y-36135016D01*
X107133365Y-36144588D01*
X107084534Y-36149398D01*
X107060000Y-36149398D01*
X107060000Y-36150000D01*
X106560000Y-36150000D01*
X106560000Y-36149398D01*
X106535466Y-36149398D01*
X106486635Y-36144588D01*
X106438510Y-36135016D01*
X106391555Y-36120772D01*
X106346222Y-36101995D01*
X106302949Y-36078864D01*
X106262150Y-36051604D01*
X106224221Y-36020476D01*
X106189524Y-35985779D01*
X106158396Y-35947850D01*
X106131136Y-35907051D01*
X106108005Y-35863778D01*
X106089228Y-35818445D01*
X106074984Y-35771490D01*
X106065412Y-35723365D01*
X106060602Y-35674534D01*
X106060602Y-35650000D01*
X106060000Y-35650000D01*
X106060000Y-35150000D01*
X107560000Y-35150000D01*
X107560000Y-35650000D01*
X107559398Y-35650000D01*
G37*
G36*
X106060000Y-34850000D02*
G01*
X106060000Y-34350000D01*
X106060602Y-34350000D01*
X106060602Y-34325466D01*
X106065412Y-34276635D01*
X106074984Y-34228510D01*
X106089228Y-34181555D01*
X106108005Y-34136222D01*
X106131136Y-34092949D01*
X106158396Y-34052150D01*
X106189524Y-34014221D01*
X106224221Y-33979524D01*
X106262150Y-33948396D01*
X106302949Y-33921136D01*
X106346222Y-33898005D01*
X106391555Y-33879228D01*
X106438510Y-33864984D01*
X106486635Y-33855412D01*
X106535466Y-33850602D01*
X106560000Y-33850602D01*
X106560000Y-33850000D01*
X107060000Y-33850000D01*
X107060000Y-33850602D01*
X107084534Y-33850602D01*
X107133365Y-33855412D01*
X107181490Y-33864984D01*
X107228445Y-33879228D01*
X107273778Y-33898005D01*
X107317051Y-33921136D01*
X107357850Y-33948396D01*
X107395779Y-33979524D01*
X107430476Y-34014221D01*
X107461604Y-34052150D01*
X107488864Y-34092949D01*
X107511995Y-34136222D01*
X107530772Y-34181555D01*
X107545016Y-34228510D01*
X107554588Y-34276635D01*
X107559398Y-34325466D01*
X107559398Y-34350000D01*
X107560000Y-34350000D01*
X107560000Y-34850000D01*
X106060000Y-34850000D01*
G37*
%TD*%
%TO.C,JP11*%
G36*
X105019398Y-35650000D02*
G01*
X105019398Y-35674534D01*
X105014588Y-35723365D01*
X105005016Y-35771490D01*
X104990772Y-35818445D01*
X104971995Y-35863778D01*
X104948864Y-35907051D01*
X104921604Y-35947850D01*
X104890476Y-35985779D01*
X104855779Y-36020476D01*
X104817850Y-36051604D01*
X104777051Y-36078864D01*
X104733778Y-36101995D01*
X104688445Y-36120772D01*
X104641490Y-36135016D01*
X104593365Y-36144588D01*
X104544534Y-36149398D01*
X104520000Y-36149398D01*
X104520000Y-36150000D01*
X104020000Y-36150000D01*
X104020000Y-36149398D01*
X103995466Y-36149398D01*
X103946635Y-36144588D01*
X103898510Y-36135016D01*
X103851555Y-36120772D01*
X103806222Y-36101995D01*
X103762949Y-36078864D01*
X103722150Y-36051604D01*
X103684221Y-36020476D01*
X103649524Y-35985779D01*
X103618396Y-35947850D01*
X103591136Y-35907051D01*
X103568005Y-35863778D01*
X103549228Y-35818445D01*
X103534984Y-35771490D01*
X103525412Y-35723365D01*
X103520602Y-35674534D01*
X103520602Y-35650000D01*
X103520000Y-35650000D01*
X103520000Y-35150000D01*
X105020000Y-35150000D01*
X105020000Y-35650000D01*
X105019398Y-35650000D01*
G37*
G36*
X103520000Y-34850000D02*
G01*
X103520000Y-34350000D01*
X103520602Y-34350000D01*
X103520602Y-34325466D01*
X103525412Y-34276635D01*
X103534984Y-34228510D01*
X103549228Y-34181555D01*
X103568005Y-34136222D01*
X103591136Y-34092949D01*
X103618396Y-34052150D01*
X103649524Y-34014221D01*
X103684221Y-33979524D01*
X103722150Y-33948396D01*
X103762949Y-33921136D01*
X103806222Y-33898005D01*
X103851555Y-33879228D01*
X103898510Y-33864984D01*
X103946635Y-33855412D01*
X103995466Y-33850602D01*
X104020000Y-33850602D01*
X104020000Y-33850000D01*
X104520000Y-33850000D01*
X104520000Y-33850602D01*
X104544534Y-33850602D01*
X104593365Y-33855412D01*
X104641490Y-33864984D01*
X104688445Y-33879228D01*
X104733778Y-33898005D01*
X104777051Y-33921136D01*
X104817850Y-33948396D01*
X104855779Y-33979524D01*
X104890476Y-34014221D01*
X104921604Y-34052150D01*
X104948864Y-34092949D01*
X104971995Y-34136222D01*
X104990772Y-34181555D01*
X105005016Y-34228510D01*
X105014588Y-34276635D01*
X105019398Y-34325466D01*
X105019398Y-34350000D01*
X105020000Y-34350000D01*
X105020000Y-34850000D01*
X103520000Y-34850000D01*
G37*
%TD*%
%TO.C,JP10*%
G36*
X102509398Y-35650000D02*
G01*
X102509398Y-35674534D01*
X102504588Y-35723365D01*
X102495016Y-35771490D01*
X102480772Y-35818445D01*
X102461995Y-35863778D01*
X102438864Y-35907051D01*
X102411604Y-35947850D01*
X102380476Y-35985779D01*
X102345779Y-36020476D01*
X102307850Y-36051604D01*
X102267051Y-36078864D01*
X102223778Y-36101995D01*
X102178445Y-36120772D01*
X102131490Y-36135016D01*
X102083365Y-36144588D01*
X102034534Y-36149398D01*
X102010000Y-36149398D01*
X102010000Y-36150000D01*
X101510000Y-36150000D01*
X101510000Y-36149398D01*
X101485466Y-36149398D01*
X101436635Y-36144588D01*
X101388510Y-36135016D01*
X101341555Y-36120772D01*
X101296222Y-36101995D01*
X101252949Y-36078864D01*
X101212150Y-36051604D01*
X101174221Y-36020476D01*
X101139524Y-35985779D01*
X101108396Y-35947850D01*
X101081136Y-35907051D01*
X101058005Y-35863778D01*
X101039228Y-35818445D01*
X101024984Y-35771490D01*
X101015412Y-35723365D01*
X101010602Y-35674534D01*
X101010602Y-35650000D01*
X101010000Y-35650000D01*
X101010000Y-35150000D01*
X102510000Y-35150000D01*
X102510000Y-35650000D01*
X102509398Y-35650000D01*
G37*
G36*
X101010000Y-34850000D02*
G01*
X101010000Y-34350000D01*
X101010602Y-34350000D01*
X101010602Y-34325466D01*
X101015412Y-34276635D01*
X101024984Y-34228510D01*
X101039228Y-34181555D01*
X101058005Y-34136222D01*
X101081136Y-34092949D01*
X101108396Y-34052150D01*
X101139524Y-34014221D01*
X101174221Y-33979524D01*
X101212150Y-33948396D01*
X101252949Y-33921136D01*
X101296222Y-33898005D01*
X101341555Y-33879228D01*
X101388510Y-33864984D01*
X101436635Y-33855412D01*
X101485466Y-33850602D01*
X101510000Y-33850602D01*
X101510000Y-33850000D01*
X102010000Y-33850000D01*
X102010000Y-33850602D01*
X102034534Y-33850602D01*
X102083365Y-33855412D01*
X102131490Y-33864984D01*
X102178445Y-33879228D01*
X102223778Y-33898005D01*
X102267051Y-33921136D01*
X102307850Y-33948396D01*
X102345779Y-33979524D01*
X102380476Y-34014221D01*
X102411604Y-34052150D01*
X102438864Y-34092949D01*
X102461995Y-34136222D01*
X102480772Y-34181555D01*
X102495016Y-34228510D01*
X102504588Y-34276635D01*
X102509398Y-34325466D01*
X102509398Y-34350000D01*
X102510000Y-34350000D01*
X102510000Y-34850000D01*
X101010000Y-34850000D01*
G37*
%TD*%
D29*
%TO.C,Q1*%
X49000000Y-87460000D03*
X49000000Y-90000000D03*
D30*
X49000000Y-92540000D03*
D31*
X32340000Y-90000000D03*
%TD*%
D34*
%TO.C,JP9*%
G36*
X86559398Y-35650000D02*
G01*
X86559398Y-35674534D01*
X86554588Y-35723365D01*
X86545016Y-35771490D01*
X86530772Y-35818445D01*
X86511995Y-35863778D01*
X86488864Y-35907051D01*
X86461604Y-35947850D01*
X86430476Y-35985779D01*
X86395779Y-36020476D01*
X86357850Y-36051604D01*
X86317051Y-36078864D01*
X86273778Y-36101995D01*
X86228445Y-36120772D01*
X86181490Y-36135016D01*
X86133365Y-36144588D01*
X86084534Y-36149398D01*
X86060000Y-36149398D01*
X86060000Y-36150000D01*
X85560000Y-36150000D01*
X85560000Y-36149398D01*
X85535466Y-36149398D01*
X85486635Y-36144588D01*
X85438510Y-36135016D01*
X85391555Y-36120772D01*
X85346222Y-36101995D01*
X85302949Y-36078864D01*
X85262150Y-36051604D01*
X85224221Y-36020476D01*
X85189524Y-35985779D01*
X85158396Y-35947850D01*
X85131136Y-35907051D01*
X85108005Y-35863778D01*
X85089228Y-35818445D01*
X85074984Y-35771490D01*
X85065412Y-35723365D01*
X85060602Y-35674534D01*
X85060602Y-35650000D01*
X85060000Y-35650000D01*
X85060000Y-35150000D01*
X86560000Y-35150000D01*
X86560000Y-35650000D01*
X86559398Y-35650000D01*
G37*
G36*
X85060000Y-34850000D02*
G01*
X85060000Y-34350000D01*
X85060602Y-34350000D01*
X85060602Y-34325466D01*
X85065412Y-34276635D01*
X85074984Y-34228510D01*
X85089228Y-34181555D01*
X85108005Y-34136222D01*
X85131136Y-34092949D01*
X85158396Y-34052150D01*
X85189524Y-34014221D01*
X85224221Y-33979524D01*
X85262150Y-33948396D01*
X85302949Y-33921136D01*
X85346222Y-33898005D01*
X85391555Y-33879228D01*
X85438510Y-33864984D01*
X85486635Y-33855412D01*
X85535466Y-33850602D01*
X85560000Y-33850602D01*
X85560000Y-33850000D01*
X86060000Y-33850000D01*
X86060000Y-33850602D01*
X86084534Y-33850602D01*
X86133365Y-33855412D01*
X86181490Y-33864984D01*
X86228445Y-33879228D01*
X86273778Y-33898005D01*
X86317051Y-33921136D01*
X86357850Y-33948396D01*
X86395779Y-33979524D01*
X86430476Y-34014221D01*
X86461604Y-34052150D01*
X86488864Y-34092949D01*
X86511995Y-34136222D01*
X86530772Y-34181555D01*
X86545016Y-34228510D01*
X86554588Y-34276635D01*
X86559398Y-34325466D01*
X86559398Y-34350000D01*
X86560000Y-34350000D01*
X86560000Y-34850000D01*
X85060000Y-34850000D01*
G37*
%TD*%
%TO.C,JP8*%
G36*
X84019398Y-35650000D02*
G01*
X84019398Y-35674534D01*
X84014588Y-35723365D01*
X84005016Y-35771490D01*
X83990772Y-35818445D01*
X83971995Y-35863778D01*
X83948864Y-35907051D01*
X83921604Y-35947850D01*
X83890476Y-35985779D01*
X83855779Y-36020476D01*
X83817850Y-36051604D01*
X83777051Y-36078864D01*
X83733778Y-36101995D01*
X83688445Y-36120772D01*
X83641490Y-36135016D01*
X83593365Y-36144588D01*
X83544534Y-36149398D01*
X83520000Y-36149398D01*
X83520000Y-36150000D01*
X83020000Y-36150000D01*
X83020000Y-36149398D01*
X82995466Y-36149398D01*
X82946635Y-36144588D01*
X82898510Y-36135016D01*
X82851555Y-36120772D01*
X82806222Y-36101995D01*
X82762949Y-36078864D01*
X82722150Y-36051604D01*
X82684221Y-36020476D01*
X82649524Y-35985779D01*
X82618396Y-35947850D01*
X82591136Y-35907051D01*
X82568005Y-35863778D01*
X82549228Y-35818445D01*
X82534984Y-35771490D01*
X82525412Y-35723365D01*
X82520602Y-35674534D01*
X82520602Y-35650000D01*
X82520000Y-35650000D01*
X82520000Y-35150000D01*
X84020000Y-35150000D01*
X84020000Y-35650000D01*
X84019398Y-35650000D01*
G37*
G36*
X82520000Y-34850000D02*
G01*
X82520000Y-34350000D01*
X82520602Y-34350000D01*
X82520602Y-34325466D01*
X82525412Y-34276635D01*
X82534984Y-34228510D01*
X82549228Y-34181555D01*
X82568005Y-34136222D01*
X82591136Y-34092949D01*
X82618396Y-34052150D01*
X82649524Y-34014221D01*
X82684221Y-33979524D01*
X82722150Y-33948396D01*
X82762949Y-33921136D01*
X82806222Y-33898005D01*
X82851555Y-33879228D01*
X82898510Y-33864984D01*
X82946635Y-33855412D01*
X82995466Y-33850602D01*
X83020000Y-33850602D01*
X83020000Y-33850000D01*
X83520000Y-33850000D01*
X83520000Y-33850602D01*
X83544534Y-33850602D01*
X83593365Y-33855412D01*
X83641490Y-33864984D01*
X83688445Y-33879228D01*
X83733778Y-33898005D01*
X83777051Y-33921136D01*
X83817850Y-33948396D01*
X83855779Y-33979524D01*
X83890476Y-34014221D01*
X83921604Y-34052150D01*
X83948864Y-34092949D01*
X83971995Y-34136222D01*
X83990772Y-34181555D01*
X84005016Y-34228510D01*
X84014588Y-34276635D01*
X84019398Y-34325466D01*
X84019398Y-34350000D01*
X84020000Y-34350000D01*
X84020000Y-34850000D01*
X82520000Y-34850000D01*
G37*
%TD*%
%TO.C,JP7*%
G36*
X81479398Y-35650000D02*
G01*
X81479398Y-35674534D01*
X81474588Y-35723365D01*
X81465016Y-35771490D01*
X81450772Y-35818445D01*
X81431995Y-35863778D01*
X81408864Y-35907051D01*
X81381604Y-35947850D01*
X81350476Y-35985779D01*
X81315779Y-36020476D01*
X81277850Y-36051604D01*
X81237051Y-36078864D01*
X81193778Y-36101995D01*
X81148445Y-36120772D01*
X81101490Y-36135016D01*
X81053365Y-36144588D01*
X81004534Y-36149398D01*
X80980000Y-36149398D01*
X80980000Y-36150000D01*
X80480000Y-36150000D01*
X80480000Y-36149398D01*
X80455466Y-36149398D01*
X80406635Y-36144588D01*
X80358510Y-36135016D01*
X80311555Y-36120772D01*
X80266222Y-36101995D01*
X80222949Y-36078864D01*
X80182150Y-36051604D01*
X80144221Y-36020476D01*
X80109524Y-35985779D01*
X80078396Y-35947850D01*
X80051136Y-35907051D01*
X80028005Y-35863778D01*
X80009228Y-35818445D01*
X79994984Y-35771490D01*
X79985412Y-35723365D01*
X79980602Y-35674534D01*
X79980602Y-35650000D01*
X79980000Y-35650000D01*
X79980000Y-35150000D01*
X81480000Y-35150000D01*
X81480000Y-35650000D01*
X81479398Y-35650000D01*
G37*
G36*
X79980000Y-34850000D02*
G01*
X79980000Y-34350000D01*
X79980602Y-34350000D01*
X79980602Y-34325466D01*
X79985412Y-34276635D01*
X79994984Y-34228510D01*
X80009228Y-34181555D01*
X80028005Y-34136222D01*
X80051136Y-34092949D01*
X80078396Y-34052150D01*
X80109524Y-34014221D01*
X80144221Y-33979524D01*
X80182150Y-33948396D01*
X80222949Y-33921136D01*
X80266222Y-33898005D01*
X80311555Y-33879228D01*
X80358510Y-33864984D01*
X80406635Y-33855412D01*
X80455466Y-33850602D01*
X80480000Y-33850602D01*
X80480000Y-33850000D01*
X80980000Y-33850000D01*
X80980000Y-33850602D01*
X81004534Y-33850602D01*
X81053365Y-33855412D01*
X81101490Y-33864984D01*
X81148445Y-33879228D01*
X81193778Y-33898005D01*
X81237051Y-33921136D01*
X81277850Y-33948396D01*
X81315779Y-33979524D01*
X81350476Y-34014221D01*
X81381604Y-34052150D01*
X81408864Y-34092949D01*
X81431995Y-34136222D01*
X81450772Y-34181555D01*
X81465016Y-34228510D01*
X81474588Y-34276635D01*
X81479398Y-34325466D01*
X81479398Y-34350000D01*
X81480000Y-34350000D01*
X81480000Y-34850000D01*
X79980000Y-34850000D01*
G37*
%TD*%
D18*
%TO.C,C10*%
X159650000Y-36680000D03*
D25*
X159650000Y-33180000D03*
%TD*%
D18*
%TO.C,C9*%
X138650000Y-36680000D03*
D25*
X138650000Y-33180000D03*
%TD*%
D18*
%TO.C,C8*%
X117650000Y-36680000D03*
D25*
X117650000Y-33180000D03*
%TD*%
D18*
%TO.C,C7*%
X96650000Y-36680000D03*
D25*
X96650000Y-33180000D03*
%TD*%
D18*
%TO.C,C6*%
X75650000Y-36680000D03*
D25*
X75650000Y-33180000D03*
%TD*%
D18*
%TO.C,C5*%
X54650000Y-36680000D03*
D25*
X54650000Y-33180000D03*
%TD*%
%TO.C,R18*%
G36*
G01*
X66725000Y-35900000D02*
X67975000Y-35900000D01*
G75*
G02*
X68225000Y-36150000I0J-250000D01*
G01*
X68225000Y-36950000D01*
G75*
G02*
X67975000Y-37200000I-250000J0D01*
G01*
X66725000Y-37200000D01*
G75*
G02*
X66475000Y-36950000I0J250000D01*
G01*
X66475000Y-36150000D01*
G75*
G02*
X66725000Y-35900000I250000J0D01*
G01*
G37*
G36*
G01*
X66725000Y-32800000D02*
X67975000Y-32800000D01*
G75*
G02*
X68225000Y-33050000I0J-250000D01*
G01*
X68225000Y-33850000D01*
G75*
G02*
X67975000Y-34100000I-250000J0D01*
G01*
X66725000Y-34100000D01*
G75*
G02*
X66475000Y-33850000I0J250000D01*
G01*
X66475000Y-33050000D01*
G75*
G02*
X66725000Y-32800000I250000J0D01*
G01*
G37*
%TD*%
%TO.C,R17*%
G36*
G01*
X69265000Y-35900000D02*
X70515000Y-35900000D01*
G75*
G02*
X70765000Y-36150000I0J-250000D01*
G01*
X70765000Y-36950000D01*
G75*
G02*
X70515000Y-37200000I-250000J0D01*
G01*
X69265000Y-37200000D01*
G75*
G02*
X69015000Y-36950000I0J250000D01*
G01*
X69015000Y-36150000D01*
G75*
G02*
X69265000Y-35900000I250000J0D01*
G01*
G37*
G36*
G01*
X69265000Y-32800000D02*
X70515000Y-32800000D01*
G75*
G02*
X70765000Y-33050000I0J-250000D01*
G01*
X70765000Y-33850000D01*
G75*
G02*
X70515000Y-34100000I-250000J0D01*
G01*
X69265000Y-34100000D01*
G75*
G02*
X69015000Y-33850000I0J250000D01*
G01*
X69015000Y-33050000D01*
G75*
G02*
X69265000Y-32800000I250000J0D01*
G01*
G37*
%TD*%
D34*
%TO.C,JP6*%
G36*
X65559398Y-35650000D02*
G01*
X65559398Y-35674534D01*
X65554588Y-35723365D01*
X65545016Y-35771490D01*
X65530772Y-35818445D01*
X65511995Y-35863778D01*
X65488864Y-35907051D01*
X65461604Y-35947850D01*
X65430476Y-35985779D01*
X65395779Y-36020476D01*
X65357850Y-36051604D01*
X65317051Y-36078864D01*
X65273778Y-36101995D01*
X65228445Y-36120772D01*
X65181490Y-36135016D01*
X65133365Y-36144588D01*
X65084534Y-36149398D01*
X65060000Y-36149398D01*
X65060000Y-36150000D01*
X64560000Y-36150000D01*
X64560000Y-36149398D01*
X64535466Y-36149398D01*
X64486635Y-36144588D01*
X64438510Y-36135016D01*
X64391555Y-36120772D01*
X64346222Y-36101995D01*
X64302949Y-36078864D01*
X64262150Y-36051604D01*
X64224221Y-36020476D01*
X64189524Y-35985779D01*
X64158396Y-35947850D01*
X64131136Y-35907051D01*
X64108005Y-35863778D01*
X64089228Y-35818445D01*
X64074984Y-35771490D01*
X64065412Y-35723365D01*
X64060602Y-35674534D01*
X64060602Y-35650000D01*
X64060000Y-35650000D01*
X64060000Y-35150000D01*
X65560000Y-35150000D01*
X65560000Y-35650000D01*
X65559398Y-35650000D01*
G37*
G36*
X64060000Y-34850000D02*
G01*
X64060000Y-34350000D01*
X64060602Y-34350000D01*
X64060602Y-34325466D01*
X64065412Y-34276635D01*
X64074984Y-34228510D01*
X64089228Y-34181555D01*
X64108005Y-34136222D01*
X64131136Y-34092949D01*
X64158396Y-34052150D01*
X64189524Y-34014221D01*
X64224221Y-33979524D01*
X64262150Y-33948396D01*
X64302949Y-33921136D01*
X64346222Y-33898005D01*
X64391555Y-33879228D01*
X64438510Y-33864984D01*
X64486635Y-33855412D01*
X64535466Y-33850602D01*
X64560000Y-33850602D01*
X64560000Y-33850000D01*
X65060000Y-33850000D01*
X65060000Y-33850602D01*
X65084534Y-33850602D01*
X65133365Y-33855412D01*
X65181490Y-33864984D01*
X65228445Y-33879228D01*
X65273778Y-33898005D01*
X65317051Y-33921136D01*
X65357850Y-33948396D01*
X65395779Y-33979524D01*
X65430476Y-34014221D01*
X65461604Y-34052150D01*
X65488864Y-34092949D01*
X65511995Y-34136222D01*
X65530772Y-34181555D01*
X65545016Y-34228510D01*
X65554588Y-34276635D01*
X65559398Y-34325466D01*
X65559398Y-34350000D01*
X65560000Y-34350000D01*
X65560000Y-34850000D01*
X64060000Y-34850000D01*
G37*
%TD*%
%TO.C,JP5*%
G36*
X63019398Y-35650000D02*
G01*
X63019398Y-35674534D01*
X63014588Y-35723365D01*
X63005016Y-35771490D01*
X62990772Y-35818445D01*
X62971995Y-35863778D01*
X62948864Y-35907051D01*
X62921604Y-35947850D01*
X62890476Y-35985779D01*
X62855779Y-36020476D01*
X62817850Y-36051604D01*
X62777051Y-36078864D01*
X62733778Y-36101995D01*
X62688445Y-36120772D01*
X62641490Y-36135016D01*
X62593365Y-36144588D01*
X62544534Y-36149398D01*
X62520000Y-36149398D01*
X62520000Y-36150000D01*
X62020000Y-36150000D01*
X62020000Y-36149398D01*
X61995466Y-36149398D01*
X61946635Y-36144588D01*
X61898510Y-36135016D01*
X61851555Y-36120772D01*
X61806222Y-36101995D01*
X61762949Y-36078864D01*
X61722150Y-36051604D01*
X61684221Y-36020476D01*
X61649524Y-35985779D01*
X61618396Y-35947850D01*
X61591136Y-35907051D01*
X61568005Y-35863778D01*
X61549228Y-35818445D01*
X61534984Y-35771490D01*
X61525412Y-35723365D01*
X61520602Y-35674534D01*
X61520602Y-35650000D01*
X61520000Y-35650000D01*
X61520000Y-35150000D01*
X63020000Y-35150000D01*
X63020000Y-35650000D01*
X63019398Y-35650000D01*
G37*
G36*
X61520000Y-34850000D02*
G01*
X61520000Y-34350000D01*
X61520602Y-34350000D01*
X61520602Y-34325466D01*
X61525412Y-34276635D01*
X61534984Y-34228510D01*
X61549228Y-34181555D01*
X61568005Y-34136222D01*
X61591136Y-34092949D01*
X61618396Y-34052150D01*
X61649524Y-34014221D01*
X61684221Y-33979524D01*
X61722150Y-33948396D01*
X61762949Y-33921136D01*
X61806222Y-33898005D01*
X61851555Y-33879228D01*
X61898510Y-33864984D01*
X61946635Y-33855412D01*
X61995466Y-33850602D01*
X62020000Y-33850602D01*
X62020000Y-33850000D01*
X62520000Y-33850000D01*
X62520000Y-33850602D01*
X62544534Y-33850602D01*
X62593365Y-33855412D01*
X62641490Y-33864984D01*
X62688445Y-33879228D01*
X62733778Y-33898005D01*
X62777051Y-33921136D01*
X62817850Y-33948396D01*
X62855779Y-33979524D01*
X62890476Y-34014221D01*
X62921604Y-34052150D01*
X62948864Y-34092949D01*
X62971995Y-34136222D01*
X62990772Y-34181555D01*
X63005016Y-34228510D01*
X63014588Y-34276635D01*
X63019398Y-34325466D01*
X63019398Y-34350000D01*
X63020000Y-34350000D01*
X63020000Y-34850000D01*
X61520000Y-34850000D01*
G37*
%TD*%
%TO.C,JP4*%
G36*
X60479398Y-35650000D02*
G01*
X60479398Y-35674534D01*
X60474588Y-35723365D01*
X60465016Y-35771490D01*
X60450772Y-35818445D01*
X60431995Y-35863778D01*
X60408864Y-35907051D01*
X60381604Y-35947850D01*
X60350476Y-35985779D01*
X60315779Y-36020476D01*
X60277850Y-36051604D01*
X60237051Y-36078864D01*
X60193778Y-36101995D01*
X60148445Y-36120772D01*
X60101490Y-36135016D01*
X60053365Y-36144588D01*
X60004534Y-36149398D01*
X59980000Y-36149398D01*
X59980000Y-36150000D01*
X59480000Y-36150000D01*
X59480000Y-36149398D01*
X59455466Y-36149398D01*
X59406635Y-36144588D01*
X59358510Y-36135016D01*
X59311555Y-36120772D01*
X59266222Y-36101995D01*
X59222949Y-36078864D01*
X59182150Y-36051604D01*
X59144221Y-36020476D01*
X59109524Y-35985779D01*
X59078396Y-35947850D01*
X59051136Y-35907051D01*
X59028005Y-35863778D01*
X59009228Y-35818445D01*
X58994984Y-35771490D01*
X58985412Y-35723365D01*
X58980602Y-35674534D01*
X58980602Y-35650000D01*
X58980000Y-35650000D01*
X58980000Y-35150000D01*
X60480000Y-35150000D01*
X60480000Y-35650000D01*
X60479398Y-35650000D01*
G37*
G36*
X58980000Y-34850000D02*
G01*
X58980000Y-34350000D01*
X58980602Y-34350000D01*
X58980602Y-34325466D01*
X58985412Y-34276635D01*
X58994984Y-34228510D01*
X59009228Y-34181555D01*
X59028005Y-34136222D01*
X59051136Y-34092949D01*
X59078396Y-34052150D01*
X59109524Y-34014221D01*
X59144221Y-33979524D01*
X59182150Y-33948396D01*
X59222949Y-33921136D01*
X59266222Y-33898005D01*
X59311555Y-33879228D01*
X59358510Y-33864984D01*
X59406635Y-33855412D01*
X59455466Y-33850602D01*
X59480000Y-33850602D01*
X59480000Y-33850000D01*
X59980000Y-33850000D01*
X59980000Y-33850602D01*
X60004534Y-33850602D01*
X60053365Y-33855412D01*
X60101490Y-33864984D01*
X60148445Y-33879228D01*
X60193778Y-33898005D01*
X60237051Y-33921136D01*
X60277850Y-33948396D01*
X60315779Y-33979524D01*
X60350476Y-34014221D01*
X60381604Y-34052150D01*
X60408864Y-34092949D01*
X60431995Y-34136222D01*
X60450772Y-34181555D01*
X60465016Y-34228510D01*
X60474588Y-34276635D01*
X60479398Y-34325466D01*
X60479398Y-34350000D01*
X60480000Y-34350000D01*
X60480000Y-34850000D01*
X58980000Y-34850000D01*
G37*
%TD*%
D35*
%TO.C,U14*%
X103820800Y-75460000D03*
D36*
X103820800Y-72920000D03*
X103820800Y-74190000D03*
%TD*%
%TO.C,R16*%
G36*
G01*
X99365800Y-73290000D02*
X98115800Y-73290000D01*
G75*
G02*
X97865800Y-73040000I0J250000D01*
G01*
X97865800Y-72240000D01*
G75*
G02*
X98115800Y-71990000I250000J0D01*
G01*
X99365800Y-71990000D01*
G75*
G02*
X99615800Y-72240000I0J-250000D01*
G01*
X99615800Y-73040000D01*
G75*
G02*
X99365800Y-73290000I-250000J0D01*
G01*
G37*
G36*
G01*
X99365800Y-76390000D02*
X98115800Y-76390000D01*
G75*
G02*
X97865800Y-76140000I0J250000D01*
G01*
X97865800Y-75340000D01*
G75*
G02*
X98115800Y-75090000I250000J0D01*
G01*
X99365800Y-75090000D01*
G75*
G02*
X99615800Y-75340000I0J-250000D01*
G01*
X99615800Y-76140000D01*
G75*
G02*
X99365800Y-76390000I-250000J0D01*
G01*
G37*
%TD*%
D28*
%TO.C,U10*%
X64240000Y-99460000D03*
X64240000Y-96920000D03*
X72740000Y-96920000D03*
X72740000Y-99460000D03*
%TD*%
%TO.C,R14*%
G36*
G01*
X54730000Y-98835000D02*
X54730000Y-100085000D01*
G75*
G02*
X54480000Y-100335000I-250000J0D01*
G01*
X53680000Y-100335000D01*
G75*
G02*
X53430000Y-100085000I0J250000D01*
G01*
X53430000Y-98835000D01*
G75*
G02*
X53680000Y-98585000I250000J0D01*
G01*
X54480000Y-98585000D01*
G75*
G02*
X54730000Y-98835000I0J-250000D01*
G01*
G37*
G36*
G01*
X57830000Y-98835000D02*
X57830000Y-100085000D01*
G75*
G02*
X57580000Y-100335000I-250000J0D01*
G01*
X56780000Y-100335000D01*
G75*
G02*
X56530000Y-100085000I0J250000D01*
G01*
X56530000Y-98835000D01*
G75*
G02*
X56780000Y-98585000I250000J0D01*
G01*
X57580000Y-98585000D01*
G75*
G02*
X57830000Y-98835000I0J-250000D01*
G01*
G37*
%TD*%
%TO.C,R13*%
G36*
G01*
X86665800Y-88530000D02*
X85415800Y-88530000D01*
G75*
G02*
X85165800Y-88280000I0J250000D01*
G01*
X85165800Y-87480000D01*
G75*
G02*
X85415800Y-87230000I250000J0D01*
G01*
X86665800Y-87230000D01*
G75*
G02*
X86915800Y-87480000I0J-250000D01*
G01*
X86915800Y-88280000D01*
G75*
G02*
X86665800Y-88530000I-250000J0D01*
G01*
G37*
G36*
G01*
X86665800Y-91630000D02*
X85415800Y-91630000D01*
G75*
G02*
X85165800Y-91380000I0J250000D01*
G01*
X85165800Y-90580000D01*
G75*
G02*
X85415800Y-90330000I250000J0D01*
G01*
X86665800Y-90330000D01*
G75*
G02*
X86915800Y-90580000I0J-250000D01*
G01*
X86915800Y-91380000D01*
G75*
G02*
X86665800Y-91630000I-250000J0D01*
G01*
G37*
%TD*%
D20*
%TO.C,HEATER*%
X24130000Y-105410000D03*
D19*
X24130000Y-102870000D03*
%TD*%
D32*
%TO.C,D6*%
X54080000Y-104540000D03*
D33*
X64240000Y-104540000D03*
%TD*%
%TO.C,R12*%
G36*
G01*
X45725000Y-35900000D02*
X46975000Y-35900000D01*
G75*
G02*
X47225000Y-36150000I0J-250000D01*
G01*
X47225000Y-36950000D01*
G75*
G02*
X46975000Y-37200000I-250000J0D01*
G01*
X45725000Y-37200000D01*
G75*
G02*
X45475000Y-36950000I0J250000D01*
G01*
X45475000Y-36150000D01*
G75*
G02*
X45725000Y-35900000I250000J0D01*
G01*
G37*
G36*
G01*
X45725000Y-32800000D02*
X46975000Y-32800000D01*
G75*
G02*
X47225000Y-33050000I0J-250000D01*
G01*
X47225000Y-33850000D01*
G75*
G02*
X46975000Y-34100000I-250000J0D01*
G01*
X45725000Y-34100000D01*
G75*
G02*
X45475000Y-33850000I0J250000D01*
G01*
X45475000Y-33050000D01*
G75*
G02*
X45725000Y-32800000I250000J0D01*
G01*
G37*
%TD*%
%TO.C,R11*%
G36*
G01*
X48265000Y-35900000D02*
X49515000Y-35900000D01*
G75*
G02*
X49765000Y-36150000I0J-250000D01*
G01*
X49765000Y-36950000D01*
G75*
G02*
X49515000Y-37200000I-250000J0D01*
G01*
X48265000Y-37200000D01*
G75*
G02*
X48015000Y-36950000I0J250000D01*
G01*
X48015000Y-36150000D01*
G75*
G02*
X48265000Y-35900000I250000J0D01*
G01*
G37*
G36*
G01*
X48265000Y-32800000D02*
X49515000Y-32800000D01*
G75*
G02*
X49765000Y-33050000I0J-250000D01*
G01*
X49765000Y-33850000D01*
G75*
G02*
X49515000Y-34100000I-250000J0D01*
G01*
X48265000Y-34100000D01*
G75*
G02*
X48015000Y-33850000I0J250000D01*
G01*
X48015000Y-33050000D01*
G75*
G02*
X48265000Y-32800000I250000J0D01*
G01*
G37*
%TD*%
%TO.C,R10*%
G36*
G01*
X123375000Y-57090000D02*
X124625000Y-57090000D01*
G75*
G02*
X124875000Y-57340000I0J-250000D01*
G01*
X124875000Y-58140000D01*
G75*
G02*
X124625000Y-58390000I-250000J0D01*
G01*
X123375000Y-58390000D01*
G75*
G02*
X123125000Y-58140000I0J250000D01*
G01*
X123125000Y-57340000D01*
G75*
G02*
X123375000Y-57090000I250000J0D01*
G01*
G37*
G36*
G01*
X123375000Y-53990000D02*
X124625000Y-53990000D01*
G75*
G02*
X124875000Y-54240000I0J-250000D01*
G01*
X124875000Y-55040000D01*
G75*
G02*
X124625000Y-55290000I-250000J0D01*
G01*
X123375000Y-55290000D01*
G75*
G02*
X123125000Y-55040000I0J250000D01*
G01*
X123125000Y-54240000D01*
G75*
G02*
X123375000Y-53990000I250000J0D01*
G01*
G37*
%TD*%
%TO.C,R9*%
G36*
G01*
X123375000Y-49470000D02*
X124625000Y-49470000D01*
G75*
G02*
X124875000Y-49720000I0J-250000D01*
G01*
X124875000Y-50520000D01*
G75*
G02*
X124625000Y-50770000I-250000J0D01*
G01*
X123375000Y-50770000D01*
G75*
G02*
X123125000Y-50520000I0J250000D01*
G01*
X123125000Y-49720000D01*
G75*
G02*
X123375000Y-49470000I250000J0D01*
G01*
G37*
G36*
G01*
X123375000Y-46370000D02*
X124625000Y-46370000D01*
G75*
G02*
X124875000Y-46620000I0J-250000D01*
G01*
X124875000Y-47420000D01*
G75*
G02*
X124625000Y-47670000I-250000J0D01*
G01*
X123375000Y-47670000D01*
G75*
G02*
X123125000Y-47420000I0J250000D01*
G01*
X123125000Y-46620000D01*
G75*
G02*
X123375000Y-46370000I250000J0D01*
G01*
G37*
%TD*%
D18*
%TO.C,C4*%
X33650000Y-36680000D03*
D25*
X33650000Y-33180000D03*
%TD*%
D24*
%TO.C,U6*%
X164730000Y-56190000D03*
X131710000Y-48570000D03*
X162190000Y-56190000D03*
X134250000Y-48570000D03*
X159650000Y-56190000D03*
X136790000Y-48570000D03*
X157110000Y-56190000D03*
X139330000Y-48570000D03*
X154570000Y-56190000D03*
X141870000Y-48570000D03*
X152030000Y-56190000D03*
X144410000Y-48570000D03*
X149490000Y-56190000D03*
X146950000Y-48570000D03*
X146950000Y-56190000D03*
X149490000Y-48570000D03*
X144410000Y-56190000D03*
X152030000Y-48570000D03*
X141870000Y-56190000D03*
X154570000Y-48570000D03*
X139330000Y-56190000D03*
X157110000Y-48570000D03*
X136790000Y-56190000D03*
X159650000Y-48570000D03*
X134250000Y-56190000D03*
X162190000Y-48570000D03*
X131710000Y-56190000D03*
D25*
X164730000Y-48570000D03*
%TD*%
D24*
%TO.C,U3*%
X83270000Y-48570000D03*
X116290000Y-56190000D03*
X85810000Y-48570000D03*
X113750000Y-56190000D03*
X88350000Y-48570000D03*
X111210000Y-56190000D03*
X90890000Y-48570000D03*
X108670000Y-56190000D03*
X93430000Y-48570000D03*
X106130000Y-56190000D03*
X95970000Y-48570000D03*
X103590000Y-56190000D03*
X98510000Y-48570000D03*
X101050000Y-56190000D03*
X101050000Y-48570000D03*
X98510000Y-56190000D03*
X103590000Y-48570000D03*
X95970000Y-56190000D03*
X106130000Y-48570000D03*
X93430000Y-56190000D03*
X108670000Y-48570000D03*
X90890000Y-56190000D03*
X111210000Y-48570000D03*
X88350000Y-56190000D03*
X113750000Y-48570000D03*
X85810000Y-56190000D03*
X116290000Y-48570000D03*
D25*
X83270000Y-56190000D03*
%TD*%
D34*
%TO.C,JP3*%
G36*
X44599398Y-35650000D02*
G01*
X44599398Y-35674534D01*
X44594588Y-35723365D01*
X44585016Y-35771490D01*
X44570772Y-35818445D01*
X44551995Y-35863778D01*
X44528864Y-35907051D01*
X44501604Y-35947850D01*
X44470476Y-35985779D01*
X44435779Y-36020476D01*
X44397850Y-36051604D01*
X44357051Y-36078864D01*
X44313778Y-36101995D01*
X44268445Y-36120772D01*
X44221490Y-36135016D01*
X44173365Y-36144588D01*
X44124534Y-36149398D01*
X44100000Y-36149398D01*
X44100000Y-36150000D01*
X43600000Y-36150000D01*
X43600000Y-36149398D01*
X43575466Y-36149398D01*
X43526635Y-36144588D01*
X43478510Y-36135016D01*
X43431555Y-36120772D01*
X43386222Y-36101995D01*
X43342949Y-36078864D01*
X43302150Y-36051604D01*
X43264221Y-36020476D01*
X43229524Y-35985779D01*
X43198396Y-35947850D01*
X43171136Y-35907051D01*
X43148005Y-35863778D01*
X43129228Y-35818445D01*
X43114984Y-35771490D01*
X43105412Y-35723365D01*
X43100602Y-35674534D01*
X43100602Y-35650000D01*
X43100000Y-35650000D01*
X43100000Y-35150000D01*
X44600000Y-35150000D01*
X44600000Y-35650000D01*
X44599398Y-35650000D01*
G37*
G36*
X43100000Y-34850000D02*
G01*
X43100000Y-34350000D01*
X43100602Y-34350000D01*
X43100602Y-34325466D01*
X43105412Y-34276635D01*
X43114984Y-34228510D01*
X43129228Y-34181555D01*
X43148005Y-34136222D01*
X43171136Y-34092949D01*
X43198396Y-34052150D01*
X43229524Y-34014221D01*
X43264221Y-33979524D01*
X43302150Y-33948396D01*
X43342949Y-33921136D01*
X43386222Y-33898005D01*
X43431555Y-33879228D01*
X43478510Y-33864984D01*
X43526635Y-33855412D01*
X43575466Y-33850602D01*
X43600000Y-33850602D01*
X43600000Y-33850000D01*
X44100000Y-33850000D01*
X44100000Y-33850602D01*
X44124534Y-33850602D01*
X44173365Y-33855412D01*
X44221490Y-33864984D01*
X44268445Y-33879228D01*
X44313778Y-33898005D01*
X44357051Y-33921136D01*
X44397850Y-33948396D01*
X44435779Y-33979524D01*
X44470476Y-34014221D01*
X44501604Y-34052150D01*
X44528864Y-34092949D01*
X44551995Y-34136222D01*
X44570772Y-34181555D01*
X44585016Y-34228510D01*
X44594588Y-34276635D01*
X44599398Y-34325466D01*
X44599398Y-34350000D01*
X44600000Y-34350000D01*
X44600000Y-34850000D01*
X43100000Y-34850000D01*
G37*
%TD*%
%TO.C,JP2*%
G36*
X42019398Y-35650000D02*
G01*
X42019398Y-35674534D01*
X42014588Y-35723365D01*
X42005016Y-35771490D01*
X41990772Y-35818445D01*
X41971995Y-35863778D01*
X41948864Y-35907051D01*
X41921604Y-35947850D01*
X41890476Y-35985779D01*
X41855779Y-36020476D01*
X41817850Y-36051604D01*
X41777051Y-36078864D01*
X41733778Y-36101995D01*
X41688445Y-36120772D01*
X41641490Y-36135016D01*
X41593365Y-36144588D01*
X41544534Y-36149398D01*
X41520000Y-36149398D01*
X41520000Y-36150000D01*
X41020000Y-36150000D01*
X41020000Y-36149398D01*
X40995466Y-36149398D01*
X40946635Y-36144588D01*
X40898510Y-36135016D01*
X40851555Y-36120772D01*
X40806222Y-36101995D01*
X40762949Y-36078864D01*
X40722150Y-36051604D01*
X40684221Y-36020476D01*
X40649524Y-35985779D01*
X40618396Y-35947850D01*
X40591136Y-35907051D01*
X40568005Y-35863778D01*
X40549228Y-35818445D01*
X40534984Y-35771490D01*
X40525412Y-35723365D01*
X40520602Y-35674534D01*
X40520602Y-35650000D01*
X40520000Y-35650000D01*
X40520000Y-35150000D01*
X42020000Y-35150000D01*
X42020000Y-35650000D01*
X42019398Y-35650000D01*
G37*
G36*
X40520000Y-34850000D02*
G01*
X40520000Y-34350000D01*
X40520602Y-34350000D01*
X40520602Y-34325466D01*
X40525412Y-34276635D01*
X40534984Y-34228510D01*
X40549228Y-34181555D01*
X40568005Y-34136222D01*
X40591136Y-34092949D01*
X40618396Y-34052150D01*
X40649524Y-34014221D01*
X40684221Y-33979524D01*
X40722150Y-33948396D01*
X40762949Y-33921136D01*
X40806222Y-33898005D01*
X40851555Y-33879228D01*
X40898510Y-33864984D01*
X40946635Y-33855412D01*
X40995466Y-33850602D01*
X41020000Y-33850602D01*
X41020000Y-33850000D01*
X41520000Y-33850000D01*
X41520000Y-33850602D01*
X41544534Y-33850602D01*
X41593365Y-33855412D01*
X41641490Y-33864984D01*
X41688445Y-33879228D01*
X41733778Y-33898005D01*
X41777051Y-33921136D01*
X41817850Y-33948396D01*
X41855779Y-33979524D01*
X41890476Y-34014221D01*
X41921604Y-34052150D01*
X41948864Y-34092949D01*
X41971995Y-34136222D01*
X41990772Y-34181555D01*
X42005016Y-34228510D01*
X42014588Y-34276635D01*
X42019398Y-34325466D01*
X42019398Y-34350000D01*
X42020000Y-34350000D01*
X42020000Y-34850000D01*
X40520000Y-34850000D01*
G37*
%TD*%
D15*
%TO.C,DEBUG*%
X116840000Y-98000000D03*
D14*
X114300000Y-98000000D03*
X111760000Y-98000000D03*
%TD*%
%TO.C,SERIAL*%
X81280000Y-98000000D03*
X83820000Y-98000000D03*
D15*
X86360000Y-98000000D03*
%TD*%
D34*
%TO.C,JP1*%
G36*
X39479398Y-35650000D02*
G01*
X39479398Y-35674534D01*
X39474588Y-35723365D01*
X39465016Y-35771490D01*
X39450772Y-35818445D01*
X39431995Y-35863778D01*
X39408864Y-35907051D01*
X39381604Y-35947850D01*
X39350476Y-35985779D01*
X39315779Y-36020476D01*
X39277850Y-36051604D01*
X39237051Y-36078864D01*
X39193778Y-36101995D01*
X39148445Y-36120772D01*
X39101490Y-36135016D01*
X39053365Y-36144588D01*
X39004534Y-36149398D01*
X38980000Y-36149398D01*
X38980000Y-36150000D01*
X38480000Y-36150000D01*
X38480000Y-36149398D01*
X38455466Y-36149398D01*
X38406635Y-36144588D01*
X38358510Y-36135016D01*
X38311555Y-36120772D01*
X38266222Y-36101995D01*
X38222949Y-36078864D01*
X38182150Y-36051604D01*
X38144221Y-36020476D01*
X38109524Y-35985779D01*
X38078396Y-35947850D01*
X38051136Y-35907051D01*
X38028005Y-35863778D01*
X38009228Y-35818445D01*
X37994984Y-35771490D01*
X37985412Y-35723365D01*
X37980602Y-35674534D01*
X37980602Y-35650000D01*
X37980000Y-35650000D01*
X37980000Y-35150000D01*
X39480000Y-35150000D01*
X39480000Y-35650000D01*
X39479398Y-35650000D01*
G37*
G36*
X37980000Y-34850000D02*
G01*
X37980000Y-34350000D01*
X37980602Y-34350000D01*
X37980602Y-34325466D01*
X37985412Y-34276635D01*
X37994984Y-34228510D01*
X38009228Y-34181555D01*
X38028005Y-34136222D01*
X38051136Y-34092949D01*
X38078396Y-34052150D01*
X38109524Y-34014221D01*
X38144221Y-33979524D01*
X38182150Y-33948396D01*
X38222949Y-33921136D01*
X38266222Y-33898005D01*
X38311555Y-33879228D01*
X38358510Y-33864984D01*
X38406635Y-33855412D01*
X38455466Y-33850602D01*
X38480000Y-33850602D01*
X38480000Y-33850000D01*
X38980000Y-33850000D01*
X38980000Y-33850602D01*
X39004534Y-33850602D01*
X39053365Y-33855412D01*
X39101490Y-33864984D01*
X39148445Y-33879228D01*
X39193778Y-33898005D01*
X39237051Y-33921136D01*
X39277850Y-33948396D01*
X39315779Y-33979524D01*
X39350476Y-34014221D01*
X39381604Y-34052150D01*
X39408864Y-34092949D01*
X39431995Y-34136222D01*
X39450772Y-34181555D01*
X39465016Y-34228510D01*
X39474588Y-34276635D01*
X39479398Y-34325466D01*
X39479398Y-34350000D01*
X39480000Y-34350000D01*
X39480000Y-34850000D01*
X37980000Y-34850000D01*
G37*
%TD*%
D18*
%TO.C,C3*%
X124140800Y-86890000D03*
X126640800Y-86890000D03*
%TD*%
D37*
%TO.C,L1*%
X134000000Y-102000000D03*
X134000000Y-107000000D03*
%TD*%
D18*
%TO.C,C2*%
X151000000Y-102690000D03*
D25*
X151000000Y-99190000D03*
%TD*%
D18*
%TO.C,C1*%
X172000000Y-102540000D03*
D25*
X172000000Y-104540000D03*
%TD*%
D32*
%TO.C,D5*%
X54080000Y-56540000D03*
D33*
X64240000Y-56540000D03*
%TD*%
D32*
%TO.C,D4*%
X54080000Y-68540000D03*
D33*
X64240000Y-68540000D03*
%TD*%
D32*
%TO.C,D3*%
X54080000Y-80540000D03*
D33*
X64240000Y-80540000D03*
%TD*%
D32*
%TO.C,D2*%
X54080000Y-92540000D03*
D33*
X64240000Y-92540000D03*
%TD*%
D32*
%TO.C,D1*%
X151000000Y-107000000D03*
D33*
X140840000Y-107000000D03*
%TD*%
D38*
%TO.C,U16*%
X124360800Y-93160000D03*
D39*
X126640800Y-99460000D03*
X122080800Y-99460000D03*
%TD*%
D20*
%TO.C,VALVE_4*%
X24000000Y-56540000D03*
D19*
X24000000Y-54000000D03*
%TD*%
D20*
%TO.C,VALVE_3*%
X24000000Y-68540000D03*
D19*
X24000000Y-66000000D03*
%TD*%
D20*
%TO.C,VALVE_2*%
X24000000Y-80540000D03*
D19*
X24000000Y-78000000D03*
%TD*%
D28*
%TO.C,U19*%
X64240000Y-63460000D03*
X64240000Y-60920000D03*
X72740000Y-60920000D03*
X72740000Y-63460000D03*
%TD*%
%TO.C,U18*%
X64240000Y-75460000D03*
X64240000Y-72920000D03*
X72740000Y-72920000D03*
X72740000Y-75460000D03*
%TD*%
%TO.C,U17*%
X72740000Y-51460000D03*
X72740000Y-48920000D03*
X64240000Y-48920000D03*
X64240000Y-51460000D03*
%TD*%
%TO.C,R8*%
G36*
G01*
X54730000Y-62835000D02*
X54730000Y-64085000D01*
G75*
G02*
X54480000Y-64335000I-250000J0D01*
G01*
X53680000Y-64335000D01*
G75*
G02*
X53430000Y-64085000I0J250000D01*
G01*
X53430000Y-62835000D01*
G75*
G02*
X53680000Y-62585000I250000J0D01*
G01*
X54480000Y-62585000D01*
G75*
G02*
X54730000Y-62835000I0J-250000D01*
G01*
G37*
G36*
G01*
X57830000Y-62835000D02*
X57830000Y-64085000D01*
G75*
G02*
X57580000Y-64335000I-250000J0D01*
G01*
X56780000Y-64335000D01*
G75*
G02*
X56530000Y-64085000I0J250000D01*
G01*
X56530000Y-62835000D01*
G75*
G02*
X56780000Y-62585000I250000J0D01*
G01*
X57580000Y-62585000D01*
G75*
G02*
X57830000Y-62835000I0J-250000D01*
G01*
G37*
%TD*%
%TO.C,R7*%
G36*
G01*
X54730000Y-74835000D02*
X54730000Y-76085000D01*
G75*
G02*
X54480000Y-76335000I-250000J0D01*
G01*
X53680000Y-76335000D01*
G75*
G02*
X53430000Y-76085000I0J250000D01*
G01*
X53430000Y-74835000D01*
G75*
G02*
X53680000Y-74585000I250000J0D01*
G01*
X54480000Y-74585000D01*
G75*
G02*
X54730000Y-74835000I0J-250000D01*
G01*
G37*
G36*
G01*
X57830000Y-74835000D02*
X57830000Y-76085000D01*
G75*
G02*
X57580000Y-76335000I-250000J0D01*
G01*
X56780000Y-76335000D01*
G75*
G02*
X56530000Y-76085000I0J250000D01*
G01*
X56530000Y-74835000D01*
G75*
G02*
X56780000Y-74585000I250000J0D01*
G01*
X57580000Y-74585000D01*
G75*
G02*
X57830000Y-74835000I0J-250000D01*
G01*
G37*
%TD*%
%TO.C,R6*%
G36*
G01*
X54730000Y-50835000D02*
X54730000Y-52085000D01*
G75*
G02*
X54480000Y-52335000I-250000J0D01*
G01*
X53680000Y-52335000D01*
G75*
G02*
X53430000Y-52085000I0J250000D01*
G01*
X53430000Y-50835000D01*
G75*
G02*
X53680000Y-50585000I250000J0D01*
G01*
X54480000Y-50585000D01*
G75*
G02*
X54730000Y-50835000I0J-250000D01*
G01*
G37*
G36*
G01*
X57830000Y-50835000D02*
X57830000Y-52085000D01*
G75*
G02*
X57580000Y-52335000I-250000J0D01*
G01*
X56780000Y-52335000D01*
G75*
G02*
X56530000Y-52085000I0J250000D01*
G01*
X56530000Y-50835000D01*
G75*
G02*
X56780000Y-50585000I250000J0D01*
G01*
X57580000Y-50585000D01*
G75*
G02*
X57830000Y-50835000I0J-250000D01*
G01*
G37*
%TD*%
%TO.C,R5*%
G36*
G01*
X82875800Y-75090000D02*
X84125800Y-75090000D01*
G75*
G02*
X84375800Y-75340000I0J-250000D01*
G01*
X84375800Y-76140000D01*
G75*
G02*
X84125800Y-76390000I-250000J0D01*
G01*
X82875800Y-76390000D01*
G75*
G02*
X82625800Y-76140000I0J250000D01*
G01*
X82625800Y-75340000D01*
G75*
G02*
X82875800Y-75090000I250000J0D01*
G01*
G37*
G36*
G01*
X82875800Y-71990000D02*
X84125800Y-71990000D01*
G75*
G02*
X84375800Y-72240000I0J-250000D01*
G01*
X84375800Y-73040000D01*
G75*
G02*
X84125800Y-73290000I-250000J0D01*
G01*
X82875800Y-73290000D01*
G75*
G02*
X82625800Y-73040000I0J250000D01*
G01*
X82625800Y-72240000D01*
G75*
G02*
X82875800Y-71990000I250000J0D01*
G01*
G37*
%TD*%
%TO.C,R4*%
G36*
G01*
X77795800Y-75090000D02*
X79045800Y-75090000D01*
G75*
G02*
X79295800Y-75340000I0J-250000D01*
G01*
X79295800Y-76140000D01*
G75*
G02*
X79045800Y-76390000I-250000J0D01*
G01*
X77795800Y-76390000D01*
G75*
G02*
X77545800Y-76140000I0J250000D01*
G01*
X77545800Y-75340000D01*
G75*
G02*
X77795800Y-75090000I250000J0D01*
G01*
G37*
G36*
G01*
X77795800Y-71990000D02*
X79045800Y-71990000D01*
G75*
G02*
X79295800Y-72240000I0J-250000D01*
G01*
X79295800Y-73040000D01*
G75*
G02*
X79045800Y-73290000I-250000J0D01*
G01*
X77795800Y-73290000D01*
G75*
G02*
X77545800Y-73040000I0J250000D01*
G01*
X77545800Y-72240000D01*
G75*
G02*
X77795800Y-71990000I250000J0D01*
G01*
G37*
%TD*%
%TO.C,R3*%
G36*
G01*
X87955800Y-75090000D02*
X89205800Y-75090000D01*
G75*
G02*
X89455800Y-75340000I0J-250000D01*
G01*
X89455800Y-76140000D01*
G75*
G02*
X89205800Y-76390000I-250000J0D01*
G01*
X87955800Y-76390000D01*
G75*
G02*
X87705800Y-76140000I0J250000D01*
G01*
X87705800Y-75340000D01*
G75*
G02*
X87955800Y-75090000I250000J0D01*
G01*
G37*
G36*
G01*
X87955800Y-71990000D02*
X89205800Y-71990000D01*
G75*
G02*
X89455800Y-72240000I0J-250000D01*
G01*
X89455800Y-73040000D01*
G75*
G02*
X89205800Y-73290000I-250000J0D01*
G01*
X87955800Y-73290000D01*
G75*
G02*
X87705800Y-73040000I0J250000D01*
G01*
X87705800Y-72240000D01*
G75*
G02*
X87955800Y-71990000I250000J0D01*
G01*
G37*
%TD*%
D40*
%TO.C,J9*%
X162310000Y-24000000D03*
X164810000Y-24000000D03*
X167310000Y-24000000D03*
D41*
X169810000Y-24000000D03*
%TD*%
D40*
%TO.C,J8*%
X99310000Y-24000000D03*
X101810000Y-24000000D03*
X104310000Y-24000000D03*
D41*
X106810000Y-24000000D03*
%TD*%
D40*
%TO.C,J7*%
X57310000Y-24000000D03*
X59810000Y-24000000D03*
X62310000Y-24000000D03*
D41*
X64810000Y-24000000D03*
%TD*%
D40*
%TO.C,J6*%
X36310000Y-24000000D03*
X38810000Y-24000000D03*
X41310000Y-24000000D03*
D41*
X43810000Y-24000000D03*
%TD*%
D40*
%TO.C,J4*%
X141310000Y-24000000D03*
X143810000Y-24000000D03*
X146310000Y-24000000D03*
D41*
X148810000Y-24000000D03*
%TD*%
D40*
%TO.C,J3*%
X78310000Y-24000000D03*
X80810000Y-24000000D03*
X83310000Y-24000000D03*
D41*
X85810000Y-24000000D03*
%TD*%
D42*
%TO.C,U13*%
X48890000Y-28650000D03*
X46350000Y-28650000D03*
X43810000Y-28650000D03*
X41270000Y-28650000D03*
X31110000Y-28650000D03*
X33650000Y-28650000D03*
X36190000Y-28650000D03*
D43*
X31110000Y-41350000D03*
D42*
X33650000Y-41350000D03*
X36190000Y-41350000D03*
X48890000Y-41350000D03*
X46350000Y-41350000D03*
X43810000Y-41350000D03*
X41270000Y-41350000D03*
X38730000Y-28650000D03*
X38730000Y-41350000D03*
%TD*%
%TO.C,U12*%
X174890000Y-28650000D03*
X172350000Y-28650000D03*
X169810000Y-28650000D03*
X167270000Y-28650000D03*
X157110000Y-28650000D03*
X159650000Y-28650000D03*
X162190000Y-28650000D03*
D43*
X157110000Y-41350000D03*
D42*
X159650000Y-41350000D03*
X162190000Y-41350000D03*
X174890000Y-41350000D03*
X172350000Y-41350000D03*
X169810000Y-41350000D03*
X167270000Y-41350000D03*
X164730000Y-28650000D03*
X164730000Y-41350000D03*
%TD*%
%TO.C,U11*%
X132890000Y-28650000D03*
X130350000Y-28650000D03*
X127810000Y-28650000D03*
X125270000Y-28650000D03*
X115110000Y-28650000D03*
X117650000Y-28650000D03*
X120190000Y-28650000D03*
D43*
X115110000Y-41350000D03*
D42*
X117650000Y-41350000D03*
X120190000Y-41350000D03*
X132890000Y-41350000D03*
X130350000Y-41350000D03*
X127810000Y-41350000D03*
X125270000Y-41350000D03*
X122730000Y-28650000D03*
X122730000Y-41350000D03*
%TD*%
%TO.C,U9*%
X90890000Y-28650000D03*
X88350000Y-28650000D03*
X85810000Y-28650000D03*
X83270000Y-28650000D03*
X73110000Y-28650000D03*
X75650000Y-28650000D03*
X78190000Y-28650000D03*
D43*
X73110000Y-41350000D03*
D42*
X75650000Y-41350000D03*
X78190000Y-41350000D03*
X90890000Y-41350000D03*
X88350000Y-41350000D03*
X85810000Y-41350000D03*
X83270000Y-41350000D03*
X80730000Y-28650000D03*
X80730000Y-41350000D03*
%TD*%
%TO.C,U8*%
X111890000Y-28650000D03*
X109350000Y-28650000D03*
X106810000Y-28650000D03*
X104270000Y-28650000D03*
X94110000Y-28650000D03*
X96650000Y-28650000D03*
X99190000Y-28650000D03*
D43*
X94110000Y-41350000D03*
D42*
X96650000Y-41350000D03*
X99190000Y-41350000D03*
X111890000Y-41350000D03*
X109350000Y-41350000D03*
X106810000Y-41350000D03*
X104270000Y-41350000D03*
X101730000Y-28650000D03*
X101730000Y-41350000D03*
%TD*%
%TO.C,U7*%
X153890000Y-28650000D03*
X151350000Y-28650000D03*
X148810000Y-28650000D03*
X146270000Y-28650000D03*
X136110000Y-28650000D03*
X138650000Y-28650000D03*
X141190000Y-28650000D03*
D43*
X136110000Y-41350000D03*
D42*
X138650000Y-41350000D03*
X141190000Y-41350000D03*
X153890000Y-41350000D03*
X151350000Y-41350000D03*
X148810000Y-41350000D03*
X146270000Y-41350000D03*
X143730000Y-28650000D03*
X143730000Y-41350000D03*
%TD*%
D20*
%TO.C,VALVE_1*%
X24000000Y-92540000D03*
D19*
X24000000Y-90000000D03*
%TD*%
D40*
%TO.C,J1*%
X120310000Y-24000000D03*
X122810000Y-24000000D03*
X125310000Y-24000000D03*
D41*
X127810000Y-24000000D03*
%TD*%
D44*
%TO.C,U5*%
X221500000Y-107000000D03*
X221500000Y-105000000D03*
X221500000Y-103000000D03*
X221500000Y-101000000D03*
X221500000Y-99000000D03*
X221500000Y-97000000D03*
X221500000Y-95000000D03*
X221500000Y-93000000D03*
X206700000Y-93000000D03*
X206700000Y-95000000D03*
X206700000Y-97000000D03*
X206700000Y-99000000D03*
X206700000Y-101000000D03*
X206700000Y-103000000D03*
X206700000Y-105000000D03*
X206700000Y-107000000D03*
%TD*%
%TO.C,R2*%
G36*
G01*
X54730000Y-86835000D02*
X54730000Y-88085000D01*
G75*
G02*
X54480000Y-88335000I-250000J0D01*
G01*
X53680000Y-88335000D01*
G75*
G02*
X53430000Y-88085000I0J250000D01*
G01*
X53430000Y-86835000D01*
G75*
G02*
X53680000Y-86585000I250000J0D01*
G01*
X54480000Y-86585000D01*
G75*
G02*
X54730000Y-86835000I0J-250000D01*
G01*
G37*
G36*
G01*
X57830000Y-86835000D02*
X57830000Y-88085000D01*
G75*
G02*
X57580000Y-88335000I-250000J0D01*
G01*
X56780000Y-88335000D01*
G75*
G02*
X56530000Y-88085000I0J250000D01*
G01*
X56530000Y-86835000D01*
G75*
G02*
X56780000Y-86585000I250000J0D01*
G01*
X57580000Y-86585000D01*
G75*
G02*
X57830000Y-86835000I0J-250000D01*
G01*
G37*
%TD*%
%TO.C,R1*%
G36*
G01*
X81585800Y-88530000D02*
X80335800Y-88530000D01*
G75*
G02*
X80085800Y-88280000I0J250000D01*
G01*
X80085800Y-87480000D01*
G75*
G02*
X80335800Y-87230000I250000J0D01*
G01*
X81585800Y-87230000D01*
G75*
G02*
X81835800Y-87480000I0J-250000D01*
G01*
X81835800Y-88280000D01*
G75*
G02*
X81585800Y-88530000I-250000J0D01*
G01*
G37*
G36*
G01*
X81585800Y-91630000D02*
X80335800Y-91630000D01*
G75*
G02*
X80085800Y-91380000I0J250000D01*
G01*
X80085800Y-90580000D01*
G75*
G02*
X80335800Y-90330000I250000J0D01*
G01*
X81585800Y-90330000D01*
G75*
G02*
X81835800Y-90580000I0J-250000D01*
G01*
X81835800Y-91380000D01*
G75*
G02*
X81585800Y-91630000I-250000J0D01*
G01*
G37*
%TD*%
D42*
%TO.C,U2*%
X69890000Y-28650000D03*
X67350000Y-28650000D03*
X64810000Y-28650000D03*
X62270000Y-28650000D03*
X52110000Y-28650000D03*
X54650000Y-28650000D03*
X57190000Y-28650000D03*
D43*
X52110000Y-41350000D03*
D42*
X54650000Y-41350000D03*
X57190000Y-41350000D03*
X69890000Y-41350000D03*
X67350000Y-41350000D03*
X64810000Y-41350000D03*
X62270000Y-41350000D03*
X59730000Y-28650000D03*
X59730000Y-41350000D03*
%TD*%
D28*
%TO.C,U1*%
X64240000Y-87460000D03*
X64240000Y-84920000D03*
X72740000Y-84920000D03*
X72740000Y-87460000D03*
%TD*%
M02*
