%TF.GenerationSoftware,KiCad,Pcbnew,(5.1.7)-1*%
%TF.CreationDate,2020-11-03T10:53:37+01:00*%
%TF.ProjectId,PCB,5043422e-6b69-4636-9164-5f7063625858,rev?*%
%TF.SameCoordinates,Original*%
%TF.FileFunction,Profile,NP*%
%FSLAX46Y46*%
G04 Gerber Fmt 4.6, Leading zero omitted, Abs format (unit mm)*
G04 Created by KiCad (PCBNEW (5.1.7)-1) date 2020-11-03 10:53:37*
%MOMM*%
%LPD*%
G01*
G04 APERTURE LIST*
%TA.AperFunction,Profile*%
%ADD10C,0.050000*%
%TD*%
G04 APERTURE END LIST*
D10*
X185000000Y-65000000D02*
X185000000Y-62500000D01*
X186600000Y-62500000D02*
X186600000Y-65000000D01*
X105000000Y-110000000D02*
X100000000Y-110000000D01*
X20000000Y-62500000D02*
X20000000Y-65000000D01*
X100000000Y-20000000D02*
X105000000Y-20000000D01*
X211600000Y-110000000D02*
X216600000Y-110000000D01*
X211600000Y-20000000D02*
X216600000Y-20000000D01*
X241600000Y-65000000D02*
X241600000Y-62500000D01*
X20000000Y-20000000D02*
X20000000Y-62500000D01*
X20000000Y-65000000D02*
X20000000Y-110000000D01*
X20000000Y-110000000D02*
X100000000Y-110000000D01*
X105000000Y-110000000D02*
X185000000Y-110000000D01*
X185600000Y-111000000D02*
X186600000Y-111000000D01*
X105000000Y-20000000D02*
X185000000Y-20000000D01*
X20000000Y-20000000D02*
X100000000Y-20000000D01*
X185000000Y-65000000D02*
X185000000Y-110000000D01*
X185000000Y-20000000D02*
X185000000Y-62500000D01*
X186600000Y-110000000D02*
X186600000Y-65000000D01*
X186600000Y-20000000D02*
X186600000Y-62500000D01*
X216600000Y-110000000D02*
X241600000Y-110000000D01*
X186600000Y-110000000D02*
X211600000Y-110000000D01*
X241600000Y-65000000D02*
X241600000Y-110000000D01*
X241600000Y-20000000D02*
X241600000Y-62500000D01*
X241600000Y-20000000D02*
X216600000Y-20000000D01*
X186600000Y-20000000D02*
X211600000Y-20000000D01*
M02*
