M48
; DRILL file {KiCad (5.1.7)-1} date 11/03/20 10:54:05
; FORMAT={2:4/ absolute / inch / suppress trailing zeros}
; #@! TF.CreationDate,2020-11-03T10:54:05+01:00
; #@! TF.GenerationSoftware,Kicad,Pcbnew,(5.1.7)-1
FMAT,2
INCH,LZ
T1C0.0157
T2C0.0181
T3C0.0295
T4C0.0315
T5C0.0394
T6C0.0400
T7C0.0417
T8C0.0433
T9C0.0512
T10C0.0866
T11C0.1378
%
G90
G05
T1
X0185Y-0125
X022Y-0235
X022Y-0285
X022Y-033
X022Y-038
X026768Y-0125
X027998Y-022498
X027998Y-031998
X028018Y-027482
X028018Y-036982
X035035Y-0125
X038Y-0365
X042Y-0365
X043303Y-0125
X051Y-021
X051571Y-0125
X059839Y-0125
X068106Y-0125
T2
X075239Y-040951
X077989Y-040951
T3
X040874Y-028709
X040874Y-029209
X040874Y-029709
T4
X048874Y-034209
X049859Y-034209
X032783Y-019122
X032783Y-022122
X033783Y-019122
X033783Y-022122
X034783Y-019122
X034783Y-022122
X035783Y-019122
X035783Y-022122
X036783Y-019122
X036783Y-022122
X037783Y-019122
X037783Y-022122
X038783Y-019122
X038783Y-022122
X039783Y-019122
X039783Y-022122
X040783Y-019122
X040783Y-022122
X041783Y-019122
X041783Y-022122
X042783Y-019122
X042783Y-022122
X043783Y-019122
X043783Y-022122
X044783Y-019122
X044783Y-022122
X045783Y-019122
X045783Y-022122
X021516Y-013063
X021516Y-014441
X062854Y-013063
X062854Y-014441
X029783Y-013063
X029783Y-014441
X067717Y-04037
X067717Y-041157
X038051Y-013063
X038051Y-014441
X051854Y-019122
X051854Y-022122
X052854Y-019122
X052854Y-022122
X053854Y-019122
X053854Y-022122
X054854Y-019122
X054854Y-022122
X055854Y-019122
X055854Y-022122
X056854Y-019122
X056854Y-022122
X057854Y-019122
X057854Y-022122
X058854Y-019122
X058854Y-022122
X059854Y-019122
X059854Y-022122
X060854Y-019122
X060854Y-022122
X061854Y-019122
X061854Y-022122
X062854Y-019122
X062854Y-022122
X063854Y-019122
X063854Y-022122
X064854Y-019122
X064854Y-022122
X046319Y-013063
X046319Y-014441
X013248Y-013063
X013248Y-014441
X062598Y-039051
X062598Y-040051
X062598Y-041051
X062598Y-042051
X065598Y-039051
X065598Y-040051
X065598Y-041051
X065598Y-042051
X054587Y-013063
X054587Y-014441
X09Y-034157
X090984Y-034157
X059449Y-039051
X059449Y-040429
X09Y-040173
X09Y-041157
T5
X044Y-038583
X045Y-038583
X046Y-038583
X090394Y-020071
X090394Y-021071
X090394Y-022071
X032Y-038583
X033Y-038583
X034Y-038583
X04Y-038583
X041Y-038583
X042Y-038583
X036Y-038583
X037Y-038583
X038Y-038583
X090394Y-028071
X090394Y-029071
X090394Y-030071
X090394Y-016071
X090394Y-017071
X090394Y-018071
X032874Y-023709
X033874Y-023709
X034874Y-023709
X035874Y-023709
X036874Y-023709
X037874Y-023709
T6
X030874Y-026209
X030874Y-032209
X031874Y-026209
X031874Y-032209
X032874Y-026209
X032874Y-032209
X033874Y-026209
X033874Y-032209
X034874Y-026209
X034874Y-032209
X035874Y-026209
X035874Y-032209
X036874Y-026209
X036874Y-032209
X037874Y-026209
X037874Y-032209
X038874Y-026209
X038874Y-032209
X039874Y-026209
X039874Y-032209
X040874Y-026209
X040874Y-032209
X041874Y-026209
X041874Y-032209
X042874Y-026209
X042874Y-032209
X043874Y-026209
X043874Y-032209
X044874Y-026209
X044874Y-032209
X045874Y-026209
X045874Y-032209
X046874Y-026209
X046874Y-032209
X047874Y-026209
X047874Y-032209
X048374Y-028713
X048374Y-029713
X048874Y-026209
X048874Y-032209
X049874Y-026209
X049894Y-032209
X081291Y-016071
X081291Y-017071
X081291Y-018071
X081291Y-019071
X081291Y-020071
X081291Y-021071
X081291Y-022071
X081291Y-023071
X081291Y-024071
X081291Y-025071
X081291Y-026071
X081291Y-027071
X081291Y-028071
X081291Y-029071
X081291Y-030071
X081291Y-031071
X081291Y-032071
X081291Y-033071
X081291Y-034071
X081291Y-035071
X083795Y-017571
X084795Y-017571
X087291Y-016051
X087291Y-017071
X087291Y-018071
X087291Y-019071
X087291Y-020071
X087291Y-021071
X087291Y-022071
X087291Y-023071
X087291Y-024071
X087291Y-025071
X087291Y-026071
X087291Y-027071
X087291Y-028071
X087291Y-029071
X087291Y-030071
X087291Y-031071
X087291Y-032071
X087291Y-033071
X087291Y-034071
X087291Y-035071
T7
X047366Y-009449
X04835Y-009449
X049335Y-009449
X050319Y-009449
X055634Y-009449
X056618Y-009449
X057602Y-009449
X058587Y-009449
X014295Y-009449
X01528Y-009449
X016264Y-009449
X017248Y-009449
X022563Y-009449
X023547Y-009449
X024531Y-009449
X025516Y-009449
X030831Y-009449
X031815Y-009449
X032799Y-009449
X033783Y-009449
X039098Y-009449
X040083Y-009449
X041067Y-009449
X042051Y-009449
X063902Y-009449
X064886Y-009449
X06587Y-009449
X066854Y-009449
T8
X009449Y-030709
X009449Y-031709
X021291Y-026984
X025291Y-026984
X019291Y-024984
X019291Y-025984
X019291Y-026984
X021291Y-031709
X025291Y-031709
X07126Y-030709
X07126Y-031709
X055417Y-034433
X059417Y-034433
X021291Y-02226
X025291Y-02226
X019291Y-029709
X019291Y-030709
X019291Y-031709
X053587Y-01128
X053587Y-01628
X054587Y-01128
X054587Y-01628
X055587Y-01128
X055587Y-01628
X056587Y-01128
X056587Y-01628
X057587Y-01128
X057587Y-01628
X058587Y-01128
X058587Y-01628
X059587Y-01128
X059587Y-01628
X060587Y-01128
X060587Y-01628
X009449Y-025984
X009449Y-026984
X07126Y-035433
X07126Y-036433
X055417Y-024984
X059417Y-024984
X055417Y-029709
X059417Y-029709
X021291Y-041157
X025291Y-041157
X028783Y-01128
X028783Y-01628
X029783Y-01128
X029783Y-01628
X030783Y-01128
X030783Y-01628
X031783Y-01128
X031783Y-01628
X032783Y-01128
X032783Y-01628
X033783Y-01128
X033783Y-01628
X034783Y-01128
X034783Y-01628
X035783Y-01128
X035783Y-01628
X012248Y-01128
X012248Y-01628
X013248Y-01128
X013248Y-01628
X014248Y-01128
X014248Y-01628
X015248Y-01128
X015248Y-01628
X016248Y-01128
X016248Y-01628
X017248Y-01128
X017248Y-01628
X018248Y-01128
X018248Y-01628
X019248Y-01128
X019248Y-01628
X093543Y-040157
X093543Y-041157
X019291Y-02026
X019291Y-02126
X019291Y-02226
X021291Y-036433
X025291Y-036433
X061417Y-024984
X061417Y-025984
X061417Y-026984
X0095Y-0405
X0095Y-0415
X048961Y-041732
X049961Y-041732
X009449Y-02126
X009449Y-02226
X019291Y-039157
X019291Y-040157
X019291Y-041157
X020516Y-01128
X020516Y-01628
X021516Y-01128
X021516Y-01628
X022516Y-01128
X022516Y-01628
X023516Y-01128
X023516Y-01628
X024516Y-01128
X024516Y-01628
X025516Y-01128
X025516Y-01628
X026516Y-01128
X026516Y-01628
X027516Y-01128
X027516Y-01628
X045319Y-01128
X045319Y-01628
X046319Y-01128
X046319Y-01628
X047319Y-01128
X047319Y-01628
X048319Y-01128
X048319Y-01628
X049319Y-01128
X049319Y-01628
X050319Y-01128
X050319Y-01628
X051319Y-01128
X051319Y-01628
X052319Y-01128
X052319Y-01628
X07126Y-025984
X07126Y-026984
X009449Y-035433
X009449Y-036433
X037051Y-01128
X037051Y-01628
X038051Y-01128
X038051Y-01628
X039051Y-01128
X039051Y-01628
X040051Y-01128
X040051Y-01628
X041051Y-01128
X041051Y-01628
X042051Y-01128
X042051Y-01628
X043051Y-01128
X043051Y-01628
X044051Y-01128
X044051Y-01628
X061854Y-01128
X061854Y-01628
X062854Y-01128
X062854Y-01628
X063854Y-01128
X063854Y-01628
X064854Y-01128
X064854Y-01628
X065854Y-01128
X065854Y-01628
X066854Y-01128
X066854Y-01628
X067854Y-01128
X067854Y-01628
X068854Y-01128
X068854Y-01628
X055449Y-042126
X059449Y-042126
X061417Y-034433
X061417Y-035433
X061417Y-036433
X061417Y-029709
X061417Y-030709
X061417Y-031709
X07126Y-040157
X07126Y-041157
X019291Y-034433
X019291Y-035433
X019291Y-036433
T9
X052756Y-040157
X052756Y-042126
T10
X071654Y-038583
X074646Y-009055
X093937Y-009055
X009055Y-038583
X009Y-009
X071654Y-009055
X074646Y-038583
T11
X012732Y-02126
X067976Y-035433
X067976Y-030709
X012732Y-035433
X012732Y-025984
X012732Y-030709
X067976Y-025984
X012732Y-040157
T0
M30
